<svg width="24" height="24" viewBox="0 0 24 24" fill="none" xmlns="http://www.w3.org/2000/svg">
<g clip-path="url(#clip0_774_216)">
<mask id="mask0_774_216" style="mask-type:luminance" maskUnits="userSpaceOnUse" x="0" y="0" width="24" height="24">
<path d="M24 0H0V24H24V0Z" fill="white"/>
</mask>
<g mask="url(#mask0_774_216)">
<path fill-rule="evenodd" clip-rule="evenodd" d="M17.2962 4.80766C15.3566 6.74727 11.7482 6.67444 9.72701 4.65318L8.89829 3.82446L7.30714 5.4156L8.13586 6.24433C9.60602 7.71448 11.6039 8.47452 13.588 8.51583L3.77148 18.3324L5.42892 19.9899L15.2455 10.1733C15.2868 12.1574 16.0468 14.1553 17.517 15.6255L18.3457 16.4542L19.9369 14.8631L19.1081 14.0343C17.0869 12.0131 17.014 8.40472 18.9537 6.46511L19.7492 5.66953L18.0918 4.01209L17.2962 4.80766Z" fill="#18191A"/>
</g>
</g>
<defs>
<clipPath id="clip0_774_216">
<rect width="24" height="24" fill="white"/>
</clipPath>
</defs>
</svg>
