<svg width="150" height="36" viewBox="0 0 150 36" fill="none" xmlns="http://www.w3.org/2000/svg">
<g clip-path="url(#clip0_256_2877)">
<path d="M45.2449 25.747H55.7908V22.586H48.9931V10.6797H45.2449V25.747Z" fill="#18191A"/>
<path d="M62.0387 23.6393C60.5352 23.6393 59.7517 22.3327 59.7517 20.3729C59.7517 18.4131 60.5352 17.0855 62.0387 17.0855C63.5423 17.0855 64.347 18.4131 64.347 20.3729C64.347 22.3327 63.5423 23.6393 62.0387 23.6393ZM62.0599 26.0838C65.554 26.0838 67.8411 23.6182 67.8411 20.3729C67.8411 17.1277 65.554 14.6621 62.0599 14.6621C58.587 14.6621 56.2576 17.1277 56.2576 20.3729C56.2576 23.6182 58.587 26.0838 62.0599 26.0838Z" fill="#18191A"/>
<path d="M73.8891 29.4781C75.4985 29.4781 76.9174 29.1198 77.8703 28.2769C78.7385 27.4972 79.3103 26.3171 79.3103 24.6945V14.9587H76.0068V16.1177H75.9644C75.3291 15.2116 74.355 14.6426 72.915 14.6426C70.2256 14.6426 68.3621 16.8763 68.3621 20.0373C68.3621 23.3458 70.6279 25.1581 73.0632 25.1581C74.3762 25.1581 75.2021 24.6313 75.8374 23.9148H75.9221V24.9895C75.9221 26.296 75.3079 27.0547 73.8468 27.0547C72.7032 27.0547 72.1315 26.57 71.9409 26.001H68.595C68.9338 28.2558 70.9032 29.4781 73.8891 29.4781ZM73.8679 22.6082C72.5762 22.6082 71.7291 21.5546 71.7291 19.9319C71.7291 18.2882 72.5762 17.2346 73.8679 17.2346C75.3079 17.2346 76.0703 18.4568 76.0703 19.9109C76.0703 21.4281 75.3715 22.6082 73.8679 22.6082Z" fill="#18191A"/>
<path d="M86.1029 23.6393C84.5994 23.6393 83.8159 22.3327 83.8159 20.3729C83.8159 18.4131 84.5994 17.0855 86.1029 17.0855C87.6065 17.0855 88.4108 18.4131 88.4108 20.3729C88.4108 22.3327 87.6065 23.6393 86.1029 23.6393ZM86.1241 26.0838C89.6179 26.0838 91.9049 23.6182 91.9049 20.3729C91.9049 17.1277 89.6179 14.6621 86.1241 14.6621C82.6512 14.6621 80.3218 17.1277 80.3218 20.3729C80.3218 23.6182 82.6512 26.0838 86.1241 26.0838Z" fill="#18191A"/>
<path d="M92.9136 25.747H96.3653V14.9575H92.9136V25.747ZM92.9136 13.4613H96.3653V10.6797H92.9136V13.4613Z" fill="#18191A"/>
<path d="M97.8627 29.3095H101.314V24.6313H101.357C102.034 25.5374 103.03 26.0853 104.427 26.0853C107.265 26.0853 109.15 23.8516 109.15 20.3534C109.15 17.1081 107.392 14.6426 104.512 14.6426C103.03 14.6426 101.971 15.2958 101.23 16.2652H101.166V14.9587H97.8627V29.3095ZM103.538 23.4301C102.056 23.4301 101.209 22.2289 101.209 20.4798C101.209 18.7308 101.971 17.4032 103.474 17.4032C104.957 17.4032 105.656 18.6254 105.656 20.4798C105.656 22.3132 104.851 23.4301 103.538 23.4301Z" fill="#18191A"/>
<path d="M114.769 26.0853C117.607 26.0853 119.704 24.8631 119.704 22.5029C119.704 19.7423 117.459 19.2576 115.553 18.9415C114.176 18.6886 112.948 18.5833 112.948 17.8246C112.948 17.1503 113.605 16.8342 114.452 16.8342C115.405 16.8342 116.061 17.1292 116.188 18.0986H119.365C119.195 15.9702 117.544 14.6426 114.473 14.6426C111.911 14.6426 109.793 15.8227 109.793 18.0986C109.793 20.6274 111.805 21.1331 113.689 21.4492C115.129 21.7021 116.442 21.8075 116.442 22.7768C116.442 23.4722 115.786 23.8516 114.748 23.8516C113.605 23.8516 112.885 23.3247 112.758 22.25H109.496C109.602 24.6313 111.593 26.0853 114.769 26.0853Z" fill="#18191A"/>
<path d="M124.392 26.0626C125.896 26.0626 126.849 25.4725 127.632 24.4189H127.696V25.7465H130.999V14.957H127.548V20.984C127.548 22.2694 126.828 23.1545 125.642 23.1545C124.541 23.1545 124.011 22.5012 124.011 21.3211V14.957H120.581V22.0376C120.581 24.44 121.894 26.0626 124.392 26.0626Z" fill="#18191A"/>
<path d="M132.501 25.7481H135.953V19.7001C135.953 18.4147 136.588 17.5085 137.668 17.5085C138.706 17.5085 139.193 18.1829 139.193 19.3419V25.7481H142.645V19.7001C142.645 18.4147 143.259 17.5085 144.36 17.5085C145.398 17.5085 145.885 18.1829 145.885 19.3419V25.7481H149.337V18.7308C149.337 16.3074 148.108 14.6426 145.652 14.6426C144.254 14.6426 143.089 15.2326 142.242 16.5392H142.2C141.649 15.3801 140.569 14.6426 139.151 14.6426C137.584 14.6426 136.546 15.3801 135.868 16.497H135.805V14.9587H132.501V25.7481Z" fill="#18191A"/>
<path fill-rule="evenodd" clip-rule="evenodd" d="M17.7365 35.4051C27.4828 35.4051 35.3836 27.5428 35.3836 17.8441C35.3836 8.14551 27.4828 0.283203 17.7365 0.283203C7.99032 0.283203 0.0894775 8.14551 0.0894775 17.8441C0.0894775 27.5428 7.99032 35.4051 17.7365 35.4051ZM20.4603 13.8513C21.9646 12.3543 21.9646 9.9273 20.4603 8.43032C18.956 6.93335 16.5171 6.93335 15.0128 8.43032C13.5085 9.9273 13.5085 12.3543 15.0128 13.8513L17.7365 16.5618L20.4603 13.8513ZM21.749 20.5547C23.2533 22.0517 25.6922 22.0517 27.1966 20.5547C28.7008 19.0577 28.7008 16.6307 27.1966 15.1337C25.6922 13.6368 23.2533 13.6368 21.749 15.1337L19.0253 17.8442L21.749 20.5547ZM20.4603 27.2581C21.9646 25.7611 21.9646 23.3341 20.4603 21.8371L17.7365 19.1266L15.0128 21.8371C13.5085 23.3341 13.5085 25.7611 15.0128 27.2581C16.5171 28.755 18.956 28.755 20.4603 27.2581ZM8.2765 20.5547C6.77223 19.0577 6.77223 16.6307 8.2765 15.1337C9.78085 13.6368 12.2198 13.6368 13.7241 15.1337L16.4478 17.8442L13.7241 20.5547C12.2198 22.0517 9.78085 22.0517 8.2765 20.5547Z" fill="#C19A5B"/>
</g>
<defs>
<clipPath id="clip0_256_2877">
<rect width="150" height="36" fill="white"/>
</clipPath>
</defs>
</svg>
