<?xml version="1.0" encoding="UTF-8"?>
<svg id="Layer_1" xmlns="http://www.w3.org/2000/svg" version="1.1" viewBox="0 0 120 120">
  <!-- Generator: Adobe Illustrator 30.5.1, SVG Export Plug-In . SVG Version: 2.1.4 Build 3)  -->
  <defs>
    <style>
      .st0 {
        fill: #fff;
      }

      .st1 {
        fill: #1839b1;
      }
    </style>
  </defs>
  <circle class="st1" cx="60" cy="60" r="60"/>
  <path class="st0" d="M65.23,18.79c-.72-.09-1.37-.3-1.96-.64-.58-.34-1.08-.77-1.48-1.29-.4-.52-.7-1.1-.88-1.75-.17-.65-.22-1.33-.12-2.04s.3-1.36.64-1.94c.34-.58.77-1.07,1.3-1.47.52-.4,1.11-.69,1.76-.86.66-.18,1.35-.23,2.06-.14.52.07.98.19,1.4.37.42.17.8.4,1.13.68.34.28.64.61.91,1l-1.45,1.08c-.16-.25-.35-.47-.56-.66-.21-.19-.44-.35-.71-.48-.27-.13-.58-.21-.92-.26-.61-.08-1.18,0-1.71.21-.52.21-.96.54-1.32,1-.35.46-.57,1.03-.66,1.71-.09.67-.02,1.27.21,1.82.23.53.57.97,1.02,1.32.46.33,1,.54,1.61.62.54.07,1.04.02,1.49-.15.46-.17.87-.43,1.25-.79l1.15,1.4c-.37.34-.77.62-1.2.84-.43.21-.89.35-1.38.43-.49.08-1,.08-1.54.01Z"/>
  <path class="st0" d="M74.23,21.09c-.68-.26-1.24-.63-1.65-1.13-.41-.5-.66-1.07-.76-1.7-.09-.64-.01-1.28.24-1.94.25-.66.62-1.19,1.1-1.6.5-.42,1.07-.67,1.7-.78.65-.11,1.31-.03,2,.22.68.26,1.23.64,1.63,1.14.41.5.66,1.07.75,1.7.1.63.03,1.28-.22,1.93-.25.66-.62,1.19-1.12,1.61-.49.41-1.05.67-1.69.78-.63.1-1.29.02-1.98-.23ZM74.82,19.53c.32.12.65.16.97.12.33-.05.63-.19.9-.41.28-.23.5-.54.65-.94.15-.4.2-.77.13-1.12-.06-.34-.19-.64-.41-.9-.21-.25-.47-.44-.79-.56-.33-.12-.66-.16-1-.11-.33.05-.64.18-.91.4-.27.22-.48.53-.63.93-.15.4-.2.78-.15,1.13.06.35.2.65.42.9.23.25.5.44.82.55Z"/>
  <path class="st0" d="M79.41,23.07l3.72-5.9,1.43.89-.47.74.09.06c.36-.17.75-.24,1.18-.2.43.03.84.17,1.22.41.73.46,1.13,1.02,1.22,1.68.09.67-.1,1.37-.56,2.1l-2.31,3.67-1.52-.95,2.2-3.48c.24-.39.33-.74.25-1.07-.06-.33-.26-.6-.6-.81-.28-.17-.57-.25-.88-.23-.29.02-.58.12-.86.3-.26.18-.49.42-.69.73l-1.9,3.01-1.52-.95Z"/>
  <path class="st0" d="M89.35,23.17l1.01-1.15.97.85-1.01,1.15-.97-.85ZM88.33,29.67c-.54-.48-.83-1-.87-1.58-.03-.59.19-1.15.68-1.7l4.45-5.04,1.35,1.18-4.23,4.79c-.22.25-.34.49-.34.7,0,.21.12.41.35.62.11.1.22.17.35.23.13.05.3.09.52.13l-1.16,1.31c-.2-.08-.39-.17-.57-.28-.18-.1-.35-.22-.52-.36ZM91.56,25.11l1.01-1.15,1.34,1.17-1.01,1.15-1.34-1.17Z"/>
  <path class="st0" d="M91.53,33.16c-.32-.38-.52-.78-.62-1.19-.08-.42-.06-.82.08-1.22.13-.4.38-.74.74-1.04.37-.31.77-.48,1.2-.51.43-.02.85.06,1.27.26.42.21.8.51,1.13.91.18.22.33.43.45.62.13.2.24.38.32.55.08.17.14.32.17.44l.23-.19c.29-.24.43-.54.44-.91,0-.37-.14-.75-.46-1.13-.21-.25-.47-.45-.79-.59-.31-.14-.62-.21-.94-.2l-.04-1.46c.37-.01.73.04,1.08.14.35.1.69.25,1,.47.32.21.61.47.86.78.68.82,1.01,1.6.99,2.34-.02.74-.4,1.41-1.13,2.02l-3.32,2.74-1.13-1.36.55-.45-.07-.08c-.21,0-.43-.02-.67-.07-.23-.06-.46-.16-.68-.31-.23-.14-.45-.33-.66-.58ZM92.88,32.6c.23.28.49.47.77.56.29.09.57.11.85.04.28-.06.54-.18.75-.36-.05-.22-.14-.44-.26-.67-.11-.24-.26-.46-.42-.66-.34-.41-.65-.62-.93-.65-.28-.03-.54.05-.76.24-.21.17-.33.39-.34.66-.01.27.1.55.35.85Z"/>
  <path class="st0" d="M96.68,40.61c-.34-.62-.52-1.25-.51-1.89.02-.63.19-1.22.52-1.77.35-.54.84-.99,1.47-1.34.63-.35,1.27-.52,1.91-.52.64.01,1.24.18,1.78.5.55.33,1,.81,1.34,1.43.38.68.55,1.34.53,1.98-.02.64-.24,1.22-.67,1.74l-1.4-1.11c.21-.28.31-.57.31-.87,0-.31-.08-.62-.25-.94-.17-.31-.4-.55-.69-.71-.28-.17-.59-.25-.94-.25-.34,0-.7.1-1.07.31-.37.2-.65.45-.84.74-.18.29-.28.6-.3.93,0,.33.08.65.25.96.19.35.43.6.71.75.29.14.61.21.96.21l.15,1.74c-.64.04-1.26-.09-1.84-.41-.58-.31-1.06-.81-1.44-1.49Z"/>
  <path class="st0" d="M103.91,42.47l1.45-.52.43,1.21-1.45.52-.43-1.21ZM99.86,47.66c-.24-.68-.24-1.28,0-1.8.26-.53.73-.91,1.42-1.16l6.34-2.26.61,1.69-6.03,2.15c-.32.11-.53.26-.64.45-.1.18-.1.42,0,.71.05.14.11.26.19.37.09.1.22.23.39.37l-1.65.59c-.14-.16-.26-.34-.36-.52-.11-.17-.2-.36-.28-.57ZM104.9,45.24l1.45-.52.6,1.67-1.45.52-.6-1.67Z"/>
  <path class="st0" d="M101.7,57.66c-.06-.76.06-1.44.34-2.04.29-.59.72-1.06,1.31-1.43.6-.36,1.32-.57,2.18-.63l5.89-.45.14,1.83-6,.45c-.43.03-.81.13-1.15.31-.33.17-.58.41-.76.71-.17.31-.24.68-.2,1.11.03.44.16.79.37,1.07.22.28.51.47.86.59.36.12.75.16,1.18.13l6-.45.14,1.83-5.89.45c-.81.06-1.54-.04-2.18-.3-.64-.26-1.16-.66-1.55-1.2-.39-.54-.61-1.2-.67-1.98Z"/>
  <path class="st0" d="M101.47,66.27c.07-.6.22-1.1.45-1.5.22-.39.49-.71.81-.93.31-.23.65-.38,1-.47l.5,1.67c-.35.11-.62.29-.83.53-.2.24-.32.54-.36.89-.04.29-.02.56.04.8.07.25.23.39.49.42.18.02.33-.02.44-.14.12-.1.22-.24.3-.42.09-.17.16-.35.22-.54l.28-.79c.11-.33.28-.63.5-.9.23-.27.49-.49.8-.64.31-.14.66-.19,1.03-.15.42.05.76.21,1.04.49.28.28.48.64.6,1.07.12.44.15.9.09,1.4-.06.46-.16.87-.32,1.23s-.36.66-.62.9c-.25.24-.56.43-.92.55l-.48-1.6c.29-.11.51-.28.64-.5.14-.21.22-.45.25-.71.04-.31.01-.56-.08-.75-.1-.2-.22-.3-.39-.32-.17-.02-.33.05-.48.22-.15.17-.27.37-.37.62l-.37.99c-.25.67-.58,1.15-.98,1.45-.41.31-.86.43-1.37.37-.45-.06-.84-.24-1.15-.54-.3-.3-.52-.69-.66-1.15-.13-.47-.16-.97-.09-1.51Z"/>
  <path class="st0" d="M103.96,77.04l1.08-.7.9,1.4h.13s1.01-1.17,1.01-1.17l.99.83-.99,1.16v.13s1.45.56,1.45.56l-.47,1.2-1.46-.56-.08.09-.05,1.53-1.29-.04.04-1.55-.1-.08-1.61.44-.33-1.24,1.65-.45.04-.1-.91-1.44Z"/>
  <path class="st0" d="M92.59,87.24c.44-.57.96-1.02,1.55-1.37.59-.33,1.21-.53,1.87-.62.65-.08,1.31-.04,1.96.13.65.18,1.26.49,1.83.93.57.44,1.03.95,1.36,1.53.33.59.54,1.21.62,1.86.08.65.04,1.3-.14,1.95-.18.66-.49,1.27-.93,1.84-.32.41-.66.75-1.03,1.02-.36.27-.75.48-1.16.63-.42.15-.86.24-1.32.28l-.2-1.8c.3-.01.59-.06.86-.15.27-.08.53-.2.77-.37.25-.17.47-.39.69-.66.37-.48.6-1.01.69-1.58.08-.56.02-1.1-.2-1.64-.22-.54-.6-1.01-1.14-1.43-.54-.41-1.09-.66-1.68-.74-.58-.08-1.13,0-1.65.21-.52.23-.97.59-1.35,1.07-.34.43-.54.88-.62,1.35-.08.48-.06.97.05,1.47l-1.79.28c-.11-.49-.15-.97-.12-1.46.04-.48.15-.95.33-1.41.18-.46.44-.9.77-1.33Z"/>
  <path class="st0" d="M86.05,93.82c.57-.46,1.17-.74,1.81-.85.64-.1,1.26-.03,1.86.2.6.24,1.12.64,1.56,1.18.44.54.72,1.13.83,1.76.11.64.05,1.26-.18,1.86-.23.61-.63,1.15-1.2,1.6-.57.46-1.17.74-1.81.83-.64.1-1.26.03-1.85-.21-.6-.23-1.12-.62-1.57-1.16-.44-.54-.72-1.14-.83-1.78-.11-.63-.05-1.24.17-1.85.23-.6.63-1.13,1.2-1.59ZM87.1,95.12c-.27.22-.47.48-.59.77-.12.31-.16.64-.1.98.05.36.22.7.49,1.03.27.33.57.56.9.68.32.12.65.16.98.1.32-.05.62-.18.88-.39.27-.22.47-.49.6-.8.12-.31.16-.64.11-.99-.06-.34-.22-.68-.49-1.01-.27-.33-.57-.56-.9-.7-.33-.12-.66-.15-.99-.09-.33.07-.63.21-.89.42Z"/>
  <path class="st0" d="M81.72,97.28l3.25,6.17-1.49.78-.41-.77-.1.05c-.03.4-.17.77-.42,1.11-.25.35-.57.64-.97.84-.76.4-1.45.47-2.08.2-.62-.26-1.14-.78-1.54-1.54l-2.02-3.84,1.59-.83,1.92,3.64c.21.4.48.66.8.75.32.11.65.07,1.01-.11.29-.15.5-.37.64-.64.13-.26.19-.56.17-.89-.02-.32-.12-.64-.29-.96l-1.66-3.15,1.59-.83Z"/>
  <path class="st0" d="M76.63,105.79l.49,1.45-1.22.41-.49-1.45,1.22-.41ZM71.51,101.64c.69-.23,1.29-.21,1.81.05.52.27.9.75,1.13,1.44l2.13,6.36-1.7.57-2.02-6.05c-.11-.32-.25-.53-.43-.65-.18-.1-.42-.11-.71,0-.14.05-.26.11-.37.18-.11.08-.23.21-.38.39l-.55-1.66c.17-.13.35-.25.53-.35.18-.11.37-.19.58-.26ZM73.83,106.72l.49,1.45-1.69.56-.49-1.45,1.69-.56Z"/>
  <path class="st0" d="M66.86,102.63c.49-.08.94-.06,1.35.07.4.14.74.36,1.01.68.27.31.45.7.52,1.16.08.48.02.9-.16,1.29-.2.38-.49.7-.87.96-.39.26-.85.43-1.36.51-.28.05-.54.07-.77.07-.24.01-.45,0-.64,0-.19-.02-.34-.04-.47-.08l.05.3c.06.37.25.65.57.83.32.2.72.26,1.21.18.32-.05.63-.18.91-.38.27-.19.49-.43.65-.7l1.28.71c-.18.32-.4.61-.67.86-.26.26-.57.46-.91.62-.34.17-.71.28-1.11.35-1.06.17-1.9.06-2.53-.34-.63-.4-1.02-1.06-1.17-2l-.69-4.23,1.75-.28.11.7.11-.02c.1-.18.23-.36.4-.54.17-.17.37-.31.61-.43.24-.13.51-.22.83-.27ZM66.66,104.07c-.36.06-.65.18-.87.38-.23.2-.38.44-.47.71-.09.27-.12.55-.07.83.21.07.45.11.71.12.26.02.53.01.79-.03.52-.08.87-.24,1.03-.47.17-.23.23-.49.18-.78-.04-.27-.18-.48-.39-.63-.23-.15-.53-.19-.91-.13Z"/>
  <path class="st0" d="M57.75,103.29c.71.02,1.34.19,1.89.51.54.33.96.78,1.27,1.35.3.57.43,1.22.42,1.94-.02.72-.19,1.35-.52,1.9-.33.55-.78.97-1.34,1.28-.57.31-1.21.45-1.92.43-.78-.02-1.44-.2-1.99-.54-.55-.34-.94-.83-1.17-1.45l1.66-.64c.14.32.34.56.6.71.26.16.57.25.94.26.36,0,.68-.07.97-.24.29-.16.52-.38.69-.68.17-.3.26-.65.27-1.07.01-.42-.06-.79-.22-1.1-.16-.31-.37-.55-.65-.73-.28-.17-.6-.26-.95-.27-.4-.01-.74.07-1.01.23-.27.18-.49.42-.66.72l-1.59-.75c.29-.57.72-1.03,1.28-1.37.57-.34,1.24-.5,2.02-.48Z"/>
  <path class="st0" d="M52.49,108.56l-.28,1.5-1.27-.24.28-1.5,1.27.24ZM50.04,102.46c.71.13,1.23.44,1.56.92.33.49.42,1.09.29,1.81l-1.24,6.59-1.77-.33,1.18-6.27c.06-.33.04-.59-.06-.78-.11-.18-.31-.29-.62-.35-.14-.03-.28-.03-.41-.02-.13.02-.31.07-.52.15l.32-1.72c.21-.03.42-.05.64-.05.21,0,.42,0,.63.05ZM49.6,108.02l-.28,1.5-1.75-.33.28-1.5,1.75.33Z"/>
  <path class="st0" d="M40.42,98.99c.69.34,1.22.78,1.59,1.32.36.54.56,1.16.58,1.85,0,.69-.18,1.42-.56,2.19l-2.59,5.29-1.65-.8,2.64-5.39c.19-.38.29-.76.31-1.14.02-.37-.06-.7-.24-1.01-.19-.3-.47-.55-.86-.74-.39-.19-.77-.27-1.11-.22-.35.05-.67.2-.95.44-.28.25-.52.56-.71.95l-2.64,5.39-1.65-.8,2.59-5.29c.36-.73.81-1.3,1.36-1.72.55-.42,1.16-.66,1.82-.73.66-.06,1.35.08,2.05.42Z"/>
  <path class="st0" d="M33.15,94.48c.48.37.84.75,1.07,1.14.23.39.36.78.4,1.17.04.38,0,.75-.1,1.09l-1.7-.42c.08-.35.06-.68-.04-.98-.11-.29-.31-.54-.59-.76-.23-.18-.47-.3-.71-.37-.25-.06-.45,0-.61.21-.11.14-.15.3-.11.45.03.16.1.32.21.47.11.16.22.31.35.46l.54.64c.22.26.4.56.53.89.12.33.17.67.15,1.01-.03.34-.16.66-.39.96-.26.33-.57.55-.95.65-.38.1-.79.09-1.23-.02-.44-.12-.86-.33-1.26-.63-.37-.28-.67-.58-.9-.89-.23-.31-.39-.64-.46-.99-.08-.34-.09-.7,0-1.07l1.63.4c-.05.31-.02.57.11.8.11.23.28.42.49.58.25.19.48.29.7.31s.38-.04.48-.17c.11-.14.12-.31.06-.52-.07-.21-.18-.42-.35-.63l-.67-.82c-.45-.55-.7-1.08-.76-1.58-.06-.51.06-.96.38-1.36.28-.36.63-.6,1.05-.71.42-.11.86-.1,1.33.02.47.13.92.36,1.35.69Z"/>
  <path class="st0" d="M22.57,91.18l.06,1.28-1.67.07-.07.11.51,1.47-1.22.43-.5-1.44-.11-.07-1.22.97-.8-1,1.22-.97-.04-.11-1.3-.82.69-1.09,1.32.82.12-.04.43-1.6,1.24.34-.44,1.64.07.09,1.7-.06Z"/>
  <path class="st0" d="M19.44,76.25c.27.67.41,1.34.41,2.02-.01.67-.15,1.31-.4,1.92-.26.6-.62,1.15-1.1,1.62-.48.47-1.05.84-1.72,1.11-.67.27-1.34.4-2.01.4-.68-.01-1.32-.15-1.92-.4-.61-.26-1.15-.62-1.62-1.1-.48-.48-.86-1.06-1.13-1.73-.2-.48-.32-.95-.36-1.4-.05-.45-.04-.89.04-1.31.08-.44.22-.86.43-1.28l1.66.73c-.14.26-.24.53-.3.82-.07.27-.09.56-.07.85.02.3.1.6.23.93.23.57.57,1.03,1.02,1.39.44.35.95.57,1.52.65.58.08,1.18,0,1.82-.26.63-.25,1.12-.61,1.49-1.07.36-.46.57-.97.65-1.53.07-.57-.02-1.13-.25-1.7-.21-.51-.49-.91-.86-1.21-.37-.31-.81-.54-1.3-.7l.66-1.68c.48.15.92.36,1.32.63.4.27.75.6,1.05.99.31.39.56.83.76,1.33Z"/>
  <path class="st0" d="M17.04,67.31c.11.72.05,1.38-.18,1.99-.24.6-.61,1.1-1.12,1.5-.51.39-1.12.64-1.81.75-.7.11-1.34.05-1.94-.17-.61-.23-1.11-.6-1.51-1.1-.41-.51-.67-1.12-.78-1.84-.11-.72-.05-1.38.2-1.98.24-.6.61-1.09,1.12-1.48.5-.4,1.1-.65,1.8-.76.7-.11,1.35-.04,1.96.19.6.22,1.1.58,1.51,1.08.4.5.66,1.11.77,1.83ZM15.39,67.56c-.05-.34-.18-.64-.37-.9-.21-.26-.47-.46-.8-.58-.33-.13-.71-.17-1.14-.1-.42.06-.77.21-1.04.44-.27.22-.47.48-.59.79-.12.3-.15.62-.1.96.05.34.18.65.39.92.21.26.47.46.8.6.32.13.7.16,1.12.09.42-.06.78-.21,1.06-.42.27-.23.47-.49.58-.81.11-.32.14-.65.09-.98Z"/>
  <path class="st0" d="M16.24,61.77l-6.99-.33.08-1.68.88.04v-.11c-.32-.23-.57-.53-.75-.92-.18-.39-.26-.81-.24-1.26.04-.86.33-1.48.87-1.89.54-.4,1.25-.58,2.11-.54l4.34.21-.09,1.79-4.12-.2c-.46-.02-.81.08-1.06.31-.26.22-.4.52-.41.92-.02.33.06.62.23.87.16.24.39.44.69.59.29.14.61.22.98.24l3.56.17-.09,1.79Z"/>
  <path class="st0" d="M11.44,53.12l-1.5-.32.27-1.26,1.5.32-.27,1.26ZM17.61,50.82c-.15.7-.47,1.21-.95,1.53-.5.31-1.1.4-1.82.25l-6.59-1.38.37-1.75,6.27,1.31c.33.07.59.05.78-.05.18-.1.3-.3.37-.61.03-.14.04-.28.03-.41-.02-.13-.07-.31-.14-.52l1.72.36c.03.21.04.42.03.64,0,.21-.02.42-.06.63ZM12.04,50.25l-1.5-.32.37-1.74,1.5.32-.37,1.74Z"/>
  <path class="st0" d="M19.11,46.3c-.18.46-.42.83-.74,1.12-.32.28-.69.45-1.1.53-.41.08-.83.03-1.27-.14-.45-.17-.8-.44-1.03-.79-.23-.36-.36-.77-.39-1.23-.02-.47.06-.94.24-1.43.1-.26.21-.49.33-.69.11-.21.22-.39.33-.55.11-.15.21-.28.3-.37l-.28-.11c-.35-.13-.69-.11-1.01.07-.33.18-.59.49-.76.95-.12.31-.16.63-.13.98.03.33.12.64.28.91l-1.26.75c-.19-.32-.33-.65-.41-1-.09-.36-.11-.72-.08-1.1.03-.38.12-.76.26-1.13.38-.99.91-1.66,1.57-2,.66-.34,1.44-.34,2.32,0l4.02,1.54-.64,1.64-.67-.26-.04.1c.11.18.2.38.26.61.06.23.08.47.07.74,0,.27-.07.55-.18.85ZM17.95,45.4c.13-.34.17-.65.11-.94-.06-.3-.19-.55-.38-.76-.19-.22-.42-.38-.68-.48-.17.15-.32.34-.46.55-.15.22-.28.45-.37.69-.19.49-.23.87-.11,1.13.12.26.31.44.58.55.26.1.5.09.74-.02.24-.12.43-.36.57-.72Z"/>
  <path class="st0" d="M23.12,38.18c-.38.6-.84,1.06-1.4,1.37-.56.3-1.16.43-1.81.41-.65-.04-1.27-.24-1.89-.62-.61-.38-1.07-.85-1.38-1.4-.3-.56-.45-1.16-.43-1.79.02-.64.22-1.26.6-1.86.41-.66.9-1.14,1.48-1.43.57-.3,1.19-.39,1.85-.27l-.29,1.75c-.35-.04-.66,0-.92.15-.27.14-.5.37-.7.68-.19.3-.28.62-.29.95,0,.33.07.64.24.94s.43.56.79.78c.36.22.71.34,1.06.37.34.02.66-.04.96-.19.29-.15.53-.38.72-.68.21-.34.31-.67.31-.98-.02-.32-.11-.63-.29-.93l1.45-.98c.35.54.53,1.14.54,1.8,0,.66-.19,1.32-.6,1.98Z"/>
  <path class="st0" d="M21.21,31l-1.16-1,.85-.97,1.16,1-.85.97ZM27.73,31.98c-.47.54-1,.83-1.58.87-.59.03-1.16-.19-1.71-.67l-5.08-4.4,1.18-1.35,4.83,4.19c.26.22.49.33.7.34.21,0,.41-.12.62-.35.1-.11.17-.22.23-.35.05-.13.09-.3.13-.52l1.32,1.15c-.08.2-.17.39-.28.57-.1.18-.22.35-.36.52ZM23.15,28.78l-1.16-1,1.17-1.34,1.16,1-1.17,1.34Z"/>
  <path class="st0" d="M35.59,25.46c-.64.43-1.29.66-1.95.71-.65.04-1.28-.1-1.89-.43-.6-.34-1.14-.87-1.62-1.58l-3.28-4.9,1.53-1.02,3.35,4.99c.24.36.52.64.83.84.31.2.64.3,1,.31.36,0,.71-.13,1.07-.37.36-.24.62-.52.75-.85.13-.33.16-.67.1-1.03-.07-.37-.23-.73-.47-1.09l-3.35-4.99,1.53-1.02,3.28,4.89c.45.67.72,1.35.81,2.04.09.69,0,1.33-.29,1.93-.28.6-.74,1.12-1.4,1.56Z"/>
  <path class="st0" d="M43.16,21.47c-.56.23-1.07.34-1.53.35-.46,0-.86-.08-1.21-.24-.35-.16-.65-.37-.9-.64l1.22-1.25c.27.24.56.4.87.46.31.05.63,0,.96-.12.27-.11.5-.25.68-.43.18-.18.22-.39.13-.63-.07-.17-.18-.27-.34-.32-.15-.06-.32-.08-.51-.06-.19.01-.39.03-.58.07l-.83.15c-.34.06-.69.06-1.03,0-.35-.06-.67-.19-.96-.38-.28-.2-.49-.47-.63-.82-.16-.39-.19-.77-.09-1.15.11-.38.32-.73.64-1.04.32-.32.72-.57,1.18-.76.43-.18.84-.28,1.23-.33.39-.04.75,0,1.09.1.34.1.65.28.93.53l-1.17,1.2c-.24-.2-.49-.3-.75-.31-.25-.01-.5.03-.75.13-.29.12-.49.27-.62.44-.12.18-.15.34-.09.5.07.16.21.26.43.31.22.05.46.05.72.02l1.05-.16c.71-.11,1.29-.06,1.75.14.47.2.8.54.99,1.01.17.42.2.84.09,1.26-.12.41-.35.79-.69,1.14-.35.34-.77.61-1.28.82Z"/>
  <path class="st0" d="M51.36,14.04l-1.14-.59.78-1.47-.06-.12-1.53-.3.25-1.26,1.5.29.12-.06-.22-1.54,1.28-.18.22,1.54.11.02,1.37-.71.6,1.14-1.38.72-.02.13,1.17,1.18-.92.89-1.2-1.21-.11.02-.81,1.5Z"/>
  <circle class="st0" cx="60" cy="60" r="32"/>
  <path class="st1" d="M75.9,57.79c.18,1.47.18,2.97,0,4.44-.33-.32-.66-.64-.99-.96-.57.58-1.14,1.15-1.72,1.72.68.68,1.37,1.37,2.05,2.06-.23.6-.47,1.2-.71,1.79-.87-.86-1.73-1.74-2.61-2.59-.57.57-1.14,1.15-1.72,1.72,1.01,1.03,2.04,2.04,3.06,3.06-.36.48-.72.95-1.09,1.42-3.04-3.06-6.13-6.08-9.14-9.17-.64.52-1.2,1.12-1.78,1.71,3.06,3.07,6.13,6.13,9.19,9.2-.47.37-.95.73-1.44,1.08-3.01-3.01-5.98-6.06-9.05-9.01-.55.58-1.12,1.14-1.68,1.7,2.83,2.87,5.71,5.7,8.55,8.57-.59.24-1.19.48-1.78.71-2.68-2.66-5.34-5.36-8.03-8.01-.57.57-1.14,1.14-1.72,1.71,2.29,2.34,4.63,4.63,6.93,6.96-1.48.18-2.97.17-4.45,0,.32-.32.64-.66.97-.98-.57-.58-1.15-1.16-1.75-1.72-.67.68-1.35,1.35-2.02,2.03-.61-.22-1.21-.46-1.81-.7.86-.87,1.73-1.73,2.59-2.6-.57-.58-1.15-1.16-1.74-1.72-1.01,1.02-2.03,2.03-3.04,3.05-.48-.36-.95-.72-1.42-1.09,7.54-7.55,15.09-15.09,22.63-22.64.37.47.73.95,1.08,1.44-3.01,3-6.02,6.01-9.02,9.02.58.58,1.15,1.15,1.72,1.73,2.86-2.84,5.7-5.71,8.56-8.55.25.59.49,1.18.73,1.78-2.67,2.69-5.35,5.35-8.02,8.04.57.57,1.14,1.15,1.71,1.72,2.34-2.29,4.63-4.64,6.96-6.93Z"/>
  <path class="st1" d="M69.04,46.73c.47.36.94.73,1.41,1.09-7.54,7.55-15.09,15.1-22.64,22.64-.37-.47-.73-.95-1.08-1.42,3.01-3.01,6.02-6.02,9.03-9.03-.57-.58-1.15-1.16-1.73-1.73-2.87,2.84-5.68,5.73-8.57,8.54-.25-.6-.49-1.21-.69-1.83,2.7-2.62,5.34-5.32,8-7.97-.57-.58-1.15-1.16-1.73-1.73-2.32,2.31-4.62,4.64-6.95,6.94-.18-1.48-.18-2.97,0-4.44.32.32.66.63.98.96.58-.57,1.16-1.14,1.73-1.72-.67-.68-1.34-1.36-2.03-2.02.21-.61.44-1.22.67-1.81.91.82,1.74,1.71,2.62,2.57.58-.57,1.16-1.14,1.73-1.73-1.02-1.02-2.04-2.04-3.06-3.06.36-.48.72-.95,1.09-1.42,3.07,3.06,6.13,6.13,9.2,9.19.58-.57,1.16-1.14,1.73-1.73-3.06-3.07-6.13-6.13-9.19-9.2.47-.37.94-.73,1.42-1.09,3.01,3.01,6.02,6.02,9.02,9.03.59-.56,1.17-1.14,1.74-1.73-2.85-2.86-5.71-5.7-8.56-8.57.6-.26,1.21-.49,1.83-.7,2.62,2.69,5.32,5.3,7.94,7.99.62-.54,1.19-1.12,1.76-1.71-2.31-2.32-4.63-4.63-6.94-6.94,1.48-.19,2.98-.18,4.45,0-.32.33-.64.66-.96.99.57.57,1.14,1.15,1.72,1.72.69-.68,1.38-1.37,2.06-2.05.6.23,1.2.47,1.79.72-.86.87-1.73,1.72-2.58,2.6.57.57,1.14,1.13,1.7,1.71,1.07-.97,2.06-2.03,3.1-3.05Z"/>
  <path class="st1" d="M60,77c-9.37,0-17-7.63-17-17s7.63-17,17-17,17,7.63,17,17-7.63,17-17,17ZM60,44.06c-8.79,0-15.94,7.15-15.94,15.94s7.15,15.94,15.94,15.94,15.94-7.15,15.94-15.94-7.15-15.94-15.94-15.94Z"/>
</svg>