<?xml version="1.0" encoding="UTF-8"?>
<svg id="Layer_1" xmlns="http://www.w3.org/2000/svg" version="1.1" viewBox="0 0 150 150">
  <!-- Generator: Adobe Illustrator 30.5.1, SVG Export Plug-In . SVG Version: 2.1.4 Build 3)  -->
  <defs>
    <style>
      .st0 {
        fill: #fff;
      }

      .st1 {
        fill: #172096;
      }
    </style>
  </defs>
  <circle class="st1" cx="75" cy="75" r="75"/>
  <path class="st0" d="M81.82,22.96c-.88-.11-1.67-.37-2.39-.78-.7-.41-1.3-.92-1.79-1.56-.48-.63-.83-1.33-1.05-2.09-.21-.78-.26-1.58-.15-2.42.11-.84.36-1.61.76-2.31.41-.7.92-1.29,1.55-1.78.63-.49,1.34-.84,2.12-1.06.79-.23,1.63-.29,2.51-.18,1,.13,1.83.4,2.48.81.67.4,1.21.93,1.61,1.58l-1.87,1.23c-.27-.39-.62-.7-1.04-.95-.42-.26-.91-.42-1.46-.49-.75-.09-1.43,0-2.04.29-.6.29-1.08.71-1.46,1.26-.38.55-.61,1.19-.71,1.91-.09.72-.02,1.39.21,2.02.23.63.59,1.16,1.1,1.59.52.43,1.15.69,1.9.79.93.12,1.71,0,2.34-.37.63-.38,1.07-1.01,1.32-1.91l-3.88-.45.27-2.11,6.16.78c0,.18-.01.4-.03.66,0,.25-.03.47-.05.66-.14,1.08-.49,2.02-1.06,2.82-.56.78-1.29,1.37-2.21,1.75-.9.37-1.95.49-3.13.34Z"/>
  <path class="st0" d="M93,25.69c-.85-.31-1.53-.77-2.04-1.4-.51-.63-.82-1.33-.95-2.1-.11-.78-.02-1.57.26-2.37.29-.8.74-1.45,1.35-1.98.62-.53,1.31-.88,2.1-1.04.79-.16,1.6-.09,2.44.21.83.3,1.49.76,1.98,1.38.5.62.8,1.33.91,2.13.12.79.04,1.58-.25,2.37-.04.12-.09.24-.15.36-.06.12-.12.25-.19.38l-6.22-2.24c-.06.53.03,1.01.27,1.45.25.44.65.75,1.19.95.47.17.91.21,1.33.12.43-.09.8-.25,1.1-.5l1.22,1.86c-.52.4-1.17.65-1.95.74-.78.09-1.58-.01-2.4-.31ZM95.46,18.84c-.51-.18-1-.19-1.48-.01-.47.18-.86.49-1.16.95l4.11,1.48c.05-.5-.05-.98-.31-1.44-.24-.46-.63-.78-1.16-.98Z"/>
  <path class="st0" d="M101.24,29.25c-.77-.41-1.25-.92-1.45-1.52-.2-.6-.07-1.32.39-2.16l1.98-3.62-1.09-.59.93-1.71,1.09.59.85-1.56,2.13.88-.97,1.77,1.64.89-.94,1.71-1.64-.89-1.93,3.52c-.26.48-.18.83.24,1.05l.84.45-.97,1.78-1.11-.6Z"/>
  <path class="st0" d="M106.08,32.37l7.23-9.4,1.89,1.44-7.23,9.4-1.89-1.44Z"/>
  <path class="st0" d="M109.61,34.97l6.28-6.19,1.59,1.6-.92.91c1.03-.37,2.02-.08,2.96.86.45.45.75.96.9,1.52.15.57.13,1.14-.04,1.73-.18.59-.53,1.15-1.06,1.67l-3.84,3.79-1.62-1.62,3.44-3.39c.55-.54.82-1.05.81-1.54,0-.49-.2-.94-.6-1.34-.34-.34-.77-.53-1.28-.54-.5-.02-1.02.24-1.57.78l-3.44,3.39-1.62-1.62Z"/>
  <path class="st0" d="M119.93,47.19l8.28-5.13-1.8-2.87,1.82-1.13,4.85,7.75-1.82,1.13-1.8-2.87-8.29,5.13-1.26-2.01Z"/>
  <path class="st0" d="M123.94,55.55c-.34-.84-.44-1.66-.32-2.48s.43-1.54.92-2.17c.51-.63,1.15-1.1,1.94-1.41.79-.31,1.58-.42,2.38-.31.8.12,1.53.43,2.19.93.65.5,1.15,1.18,1.49,2.01.34.85.45,1.67.32,2.48-.12.81-.44,1.53-.94,2.16-.5.64-1.15,1.11-1.93,1.43-.79.31-1.59.41-2.39.3-.79-.11-1.51-.42-2.17-.92-.65-.49-1.15-1.16-1.49-2.01ZM125.89,54.77c.18.45.44.8.79,1.05.35.25.75.39,1.18.42.43.05.86-.01,1.28-.18.43-.17.79-.42,1.07-.75.29-.32.47-.69.54-1.11.09-.42.04-.86-.14-1.31-.18-.45-.45-.8-.81-1.05-.35-.25-.74-.4-1.17-.45-.43-.04-.86.03-1.29.2-.42.17-.77.41-1.06.73-.28.33-.47.71-.55,1.13-.08.42-.02.85.16,1.3Z"/>
  <path class="st0" d="M126.71,64.68c-.11-.62-.07-1.21.12-1.76.2-.55.54-1.02,1.02-1.41.49-.39,1.1-.65,1.83-.78l5.32-.98.42,2.24-4.76.88c-.75.14-1.26.39-1.55.75-.29.36-.38.82-.28,1.38.09.48.34.86.75,1.15.41.3.99.38,1.74.25l4.76-.88.42,2.24-8.69,1.6-.41-2.18,1.3-.24c-.54-.12-.98-.36-1.31-.72-.32-.35-.54-.87-.67-1.55Z"/>
  <path class="st0" d="M127.73,75.55c0-.63.12-1.22.36-1.78.24-.54.57-1.02.99-1.44.43-.42.92-.74,1.48-.98.57-.23,1.17-.34,1.82-.34.86,0,1.64.2,2.33.59.7.41,1.26.96,1.68,1.66.42.71.63,1.51.63,2.4.01.8-.13,1.52-.43,2.15-.29.63-.7,1.13-1.22,1.5l-1.44-1.76c.31-.2.55-.47.73-.79.18-.32.27-.67.27-1.07,0-.48-.12-.91-.36-1.27-.23-.36-.53-.64-.92-.85-.39-.19-.81-.29-1.27-.29-.45,0-.88.1-1.28.3-.39.21-.7.5-.93.86-.23.37-.34.8-.34,1.29,0,.44.1.81.29,1.12.2.3.46.57.76.8l-1.45,1.66c-.53-.42-.95-.94-1.26-1.56-.29-.61-.44-1.35-.44-2.22Z"/>
  <path class="st0" d="M127.8,80.85l12.2,2.28-.42,2.24-4.71-.88c.85.64,1.15,1.6.91,2.87-.12.62-.37,1.15-.75,1.6s-.87.76-1.46.95c-.59.19-1.25.21-1.99.08l-5.31-.99.42-2.24,4.76.89c.76.14,1.34.07,1.74-.21.41-.28.67-.7.77-1.25.09-.48,0-.93-.28-1.36-.27-.42-.78-.7-1.54-.84l-4.76-.89.42-2.24Z"/>
  <path class="st0" d="M130,100.68l-.35-1.51,1.86-.26-1.09-1.51,1.34-.81.83,1.73,1.12-1.51,1.19,1.02-1.37,1.3,1.77.58-.61,1.43-1.64-.88v1.83s-1.57-.13-1.57-.13l.35-1.86-1.83.57Z"/>
  <path class="st0" d="M117.23,106.6c.53-.71,1.14-1.27,1.85-1.69.7-.41,1.45-.67,2.24-.79.79-.11,1.57-.07,2.35.11.78.2,1.52.55,2.2,1.05.68.5,1.24,1.1,1.65,1.78.41.7.68,1.43.81,2.21.12.79.08,1.58-.1,2.36-.19.8-.54,1.56-1.07,2.26-.6.81-1.24,1.39-1.92,1.76-.68.38-1.41.59-2.18.63l-.17-2.22c.47-.05.92-.19,1.34-.44.43-.24.81-.58,1.14-1.03.45-.61.7-1.24.75-1.91.04-.66-.09-1.29-.4-1.89-.3-.6-.74-1.11-1.33-1.54-.58-.43-1.21-.7-1.87-.81-.67-.11-1.31-.05-1.93.18-.63.24-1.17.66-1.62,1.27-.56.75-.83,1.49-.82,2.21.02.73.37,1.43,1.03,2.08l2.3-3.15,1.72,1.27-3.69,4.96c-.16-.09-.35-.21-.56-.35-.21-.13-.4-.25-.55-.37-.88-.65-1.53-1.41-1.95-2.3-.41-.86-.57-1.79-.46-2.77.11-.97.52-1.93,1.23-2.88Z"/>
  <path class="st0" d="M109.37,114.98c.68-.59,1.43-.96,2.22-1.09.8-.14,1.57-.07,2.31.2.74.28,1.39.75,1.95,1.38.56.64.92,1.35,1.08,2.14.17.79.13,1.57-.1,2.33-.25.77-.7,1.44-1.37,2.01-.67.58-1.39.93-2.17,1.05-.79.13-1.56.05-2.31-.25-.75-.28-1.41-.73-1.96-1.37-.08-.09-.16-.19-.24-.31-.08-.11-.16-.23-.24-.35l4.99-4.31c-.44-.31-.9-.47-1.4-.47-.51,0-.98.19-1.41.57-.38.32-.63.69-.75,1.1-.13.41-.17.82-.1,1.2l-2.23.16c-.1-.65,0-1.33.3-2.05.3-.72.78-1.37,1.44-1.94ZM114.19,120.45c.41-.35.65-.78.73-1.28s-.01-.99-.27-1.47l-3.3,2.85c.41.28.89.43,1.42.43.52.01,1-.17,1.42-.54Z"/>
  <path class="st0" d="M102.24,120.41c.74-.47,1.42-.64,2.04-.53s1.19.57,1.71,1.38l2.22,3.48,1.05-.66,1.05,1.64-1.05.66.96,1.5-1.81,1.42-1.08-1.7-1.58,1-1.05-1.64,1.58-1-2.16-3.38c-.29-.46-.64-.56-1.04-.31l-.8.51-1.09-1.71,1.06-.67Z"/>
  <path class="st0" d="M97.12,123.12l4.75,10.86-2.18.94-4.75-10.85,2.18-.95Z"/>
  <path class="st0" d="M93.14,124.92l2.38,8.47-2.18.6-.35-1.24c-.18,1.08-.91,1.8-2.2,2.16-.61.17-1.2.18-1.77.04-.57-.15-1.07-.44-1.5-.88-.43-.44-.75-1.02-.95-1.74l-1.45-5.18,2.21-.61,1.3,4.64c.21.74.53,1.22.96,1.46.43.24.92.29,1.47.14.47-.13.84-.41,1.1-.85.26-.42.28-1,.08-1.74l-1.3-4.64,2.21-.61Z"/>
  <path class="st0" d="M77.38,127.91l.45,9.7,3.4-.16.1,2.13-9.17.42-.1-2.13,3.4-.16-.45-9.7,2.38-.11Z"/>
  <path class="st0" d="M68.01,127.32c.9.11,1.68.43,2.33.93.65.51,1.14,1.12,1.46,1.86.3.74.4,1.54.29,2.37-.11.84-.41,1.58-.89,2.22-.49.64-1.12,1.12-1.88,1.45-.76.32-1.59.43-2.49.31-.91-.12-1.69-.43-2.33-.93-.65-.5-1.13-1.13-1.44-1.87-.31-.75-.42-1.54-.31-2.38.11-.84.41-1.58.91-2.22.48-.63,1.1-1.11,1.87-1.43.75-.32,1.58-.43,2.49-.31ZM67.74,129.38c-.48-.06-.92,0-1.31.17-.39.19-.71.46-.95.82-.25.35-.41.75-.46,1.2-.06.46-.01.89.14,1.3.14.4.38.74.71,1.01.33.28.74.45,1.22.51.48.06.92,0,1.31-.19.39-.18.71-.44.96-.8.24-.36.39-.76.45-1.22.06-.45.02-.87-.13-1.28-.15-.41-.39-.75-.72-1.03-.33-.27-.74-.44-1.22-.5Z"/>
  <path class="st0" d="M58.65,125.27c.6.2,1.1.52,1.49.96.39.44.64.96.74,1.57.1.62.03,1.27-.2,1.97l-1.73,5.1-2.17-.73,1.55-4.57c.24-.72.28-1.29.1-1.72-.18-.43-.53-.73-1.07-.91-.46-.15-.92-.12-1.38.09-.47.21-.82.68-1.06,1.39l-1.55,4.57-2.17-.73,2.83-8.33,2.11.71-.42,1.25c.37-.41.79-.67,1.27-.79.47-.11,1.03-.05,1.68.17Z"/>
  <path class="st0" d="M48.64,120.87c.55.31,1.01.7,1.38,1.18.36.47.62.99.78,1.56.16.58.2,1.17.14,1.76-.08.6-.28,1.18-.59,1.74-.42.75-.97,1.33-1.66,1.73-.7.41-1.46.63-2.28.65-.83.02-1.63-.19-2.41-.63-.71-.38-1.27-.86-1.68-1.42-.41-.56-.65-1.16-.72-1.8l2.25-.39c.03.36.14.71.34,1.02.19.31.46.56.8.76.43.24.85.34,1.29.31.43-.02.82-.15,1.19-.38.36-.24.65-.56.88-.97.22-.39.34-.81.36-1.25,0-.44-.1-.85-.3-1.23-.22-.38-.54-.69-.96-.92-.39-.22-.76-.31-1.12-.29-.37.03-.72.12-1.07.27l-.75-2.06c.63-.26,1.29-.37,1.98-.33.68.04,1.4.28,2.16.7Z"/>
  <path class="st0" d="M43.97,118.35l-7.96,9.47-1.76-1.46,3.07-3.66c-.98.42-1.96.22-2.96-.61-.49-.4-.83-.88-1.03-1.43-.2-.55-.24-1.13-.12-1.73.12-.6.42-1.19.9-1.76l3.47-4.13,1.76,1.46-3.11,3.7c-.49.59-.72,1.12-.66,1.61.04.49.28.92.72,1.28.37.31.82.45,1.33.42.5-.03.99-.34,1.49-.92l3.11-3.7,1.76,1.46Z"/>
  <path class="st0" d="M25.52,110.6l1.5.43-.68,1.75,1.86-.22.06,1.56-1.92-.12.78,1.71-1.47.54-.48-1.82-1.37,1.25-.96-1.23,1.57-1-1.61-.9.88-1.3,1.46,1.2.39-1.87Z"/>
  <path class="st0" d="M26.52,96.63c.37.8.56,1.61.59,2.43.02.81-.11,1.59-.39,2.33-.29.74-.7,1.4-1.24,1.99-.55.58-1.22,1.05-1.99,1.4-.77.35-1.56.54-2.37.57-.81.02-1.59-.1-2.34-.37-.75-.28-1.42-.69-2.02-1.24-.61-.55-1.1-1.23-1.47-2.03-.42-.91-.62-1.76-.61-2.53,0-.78.16-1.51.51-2.2l2.03.94c-.19.43-.28.89-.26,1.38,0,.49.12.99.35,1.5.31.69.75,1.21,1.32,1.58.56.35,1.18.55,1.85.57.67.03,1.34-.1,2-.4.66-.3,1.2-.71,1.62-1.23.42-.53.68-1.11.78-1.77.1-.66-.01-1.34-.33-2.03-.39-.85-.91-1.45-1.55-1.79-.65-.34-1.43-.38-2.33-.12l1.65,3.53-1.95.88-2.57-5.62c.16-.1.35-.2.58-.32.22-.12.41-.22.59-.3,1-.45,1.99-.65,2.97-.58.96.06,1.85.38,2.66.95.8.57,1.44,1.39,1.93,2.47Z"/>
  <path class="st0" d="M22.99,85.7c.18.88.14,1.7-.13,2.46-.27.76-.7,1.39-1.3,1.91-.61.51-1.33.85-2.17,1.02-.83.17-1.63.14-2.4-.11-.78-.24-1.44-.65-1.99-1.23-.55-.59-.92-1.31-1.1-2.17-.18-.86-.13-1.66.14-2.4.27-.75.72-1.38,1.34-1.88.61-.52,1.33-.86,2.16-1.03.12-.03.25-.05.39-.06.14-.02.28-.03.43-.04l1.34,6.44c.49-.23.85-.56,1.1-.99.24-.44.31-.94.19-1.51-.1-.49-.3-.88-.6-1.19-.3-.32-.63-.54-1.01-.67l.95-2.01c.62.23,1.17.65,1.65,1.26.49.61.82,1.34,1,2.19ZM15.84,87.21c.11.53.37.95.77,1.26.4.31.87.47,1.42.48l-.89-4.26c-.45.22-.81.56-1.07,1.02-.27.45-.34.95-.23,1.5Z"/>
  <path class="st0" d="M21.71,76.89c.05.87-.13,1.54-.53,2.03-.4.49-1.09.75-2.05.81l-4.14.23.07,1.23-1.95.11-.07-1.23-1.78.1-.36-2.27,2.02-.11-.1-1.86,1.95-.11.1,1.86,4.02-.22c.54-.03.8-.28.78-.75l-.05-.95,2.04-.11.07,1.25Z"/>
  <path class="st0" d="M21.84,71.04l-11.84-1.17.24-2.36,11.84,1.17-.24,2.36Z"/>
  <path class="st0" d="M22.2,66.71l-8.59-2.06.53-2.19,1.26.3c-.86-.68-1.13-1.67-.82-2.96.15-.61.43-1.13.83-1.56.41-.42.91-.72,1.51-.87.6-.16,1.26-.15,1.99.02l5.26,1.26-.54,2.22-4.71-1.13c-.75-.18-1.33-.14-1.74.12-.42.26-.7.66-.84,1.21-.11.47-.04.93.21,1.37.25.43.74.73,1.49.91l4.71,1.13-.54,2.22Z"/>
  <path class="st0" d="M27.26,51.57l-8.73-4.34-1.52,3.02-1.92-.95,4.11-8.17,1.92.95-1.52,3.02,8.73,4.34-1.06,2.12Z"/>
  <path class="st0" d="M32.31,43.8c-.54.72-1.19,1.25-1.95,1.57-.76.32-1.54.44-2.34.36-.8-.1-1.54-.4-2.22-.91-.68-.5-1.19-1.12-1.51-1.86-.32-.74-.44-1.52-.35-2.34.09-.82.4-1.59.94-2.31.55-.73,1.2-1.26,1.95-1.57.76-.32,1.54-.43,2.34-.33.81.09,1.55.39,2.23.89.68.5,1.18,1.13,1.5,1.87.32.73.43,1.5.34,2.32-.08.81-.4,1.58-.95,2.31ZM30.63,42.56c.29-.39.45-.8.49-1.22.03-.43-.06-.84-.25-1.22-.19-.39-.46-.72-.83-.99-.37-.28-.77-.45-1.21-.51-.42-.07-.84-.03-1.23.12-.41.15-.76.42-1.05.81-.29.39-.45.8-.47,1.23-.03.42.04.83.23,1.22.19.38.48.71.85.99.36.27.76.44,1.18.52.43.07.85.02,1.26-.12.4-.16.74-.43,1.03-.82Z"/>
  <path class="st0" d="M38.68,36.66c-.47.42-.99.7-1.57.82-.58.12-1.16.08-1.74-.12-.59-.21-1.13-.59-1.63-1.13l-3.63-3.98,1.7-1.53,3.26,3.57c.51.56,1,.87,1.46.92.46.05.9-.11,1.32-.49.36-.33.56-.74.59-1.24.04-.51-.19-1.04-.7-1.6l-3.26-3.57,1.7-1.53,5.94,6.51-1.65,1.49-.89-.98c.18.52.21,1.02.07,1.49-.13.46-.46.92-.97,1.38Z"/>
  <path class="st0" d="M47.41,30.1c-.54.33-1.11.54-1.71.63-.59.08-1.17.06-1.75-.08-.58-.15-1.12-.39-1.62-.74-.49-.36-.91-.82-1.24-1.36-.45-.73-.69-1.49-.72-2.28-.02-.81.16-1.57.53-2.3.39-.73.96-1.33,1.72-1.79.68-.43,1.37-.69,2.06-.77.69-.08,1.34,0,1.93.25l-.75,2.15c-.33-.15-.69-.22-1.06-.2-.37.01-.72.12-1.05.33-.41.25-.71.58-.9.97-.19.38-.27.79-.24,1.22.04.43.18.84.42,1.23.24.38.55.69.93.92.39.21.8.33,1.23.34.44,0,.86-.13,1.28-.39.38-.23.64-.51.8-.83.15-.33.25-.69.28-1.07l2.18.35c-.08.67-.3,1.3-.67,1.88-.37.57-.92,1.08-1.66,1.54Z"/>
  <path class="st0" d="M51.9,27.26l-4.45-11.52,2.14-.82,1.72,4.45c.1-1.05.76-1.81,1.98-2.28.59-.23,1.18-.29,1.76-.2.58.09,1.11.34,1.58.74.47.4.84.95,1.11,1.64l1.94,5.02-2.14.82-1.74-4.5c-.28-.72-.64-1.17-1.09-1.36-.45-.2-.95-.2-1.47,0-.45.17-.79.49-1.02.95-.22.45-.19,1.03.09,1.74l1.74,4.5-2.14.82Z"/>
  <path class="st0" d="M67.7,15.01l-1.1,1.09-1.2-1.44-.72,1.72-1.4-.71,1.04-1.61-1.88-.16.24-1.54,1.83.47-.43-1.8,1.55-.24.11,1.85,1.57-.96.71,1.4-1.77.68,1.45,1.25Z"/>
  <path class="st0" d="M75,50h0c13.81,0,25,11.19,25,25h0c0,13.81-11.19,25-25,25h0c-13.81,0-25-11.19-25-25h0c0-13.81,11.19-25,25-25Z"/>
  <path class="st1" d="M89.03,73.04c.16,1.3.16,2.62,0,3.92-.29-.28-.58-.56-.87-.85-.51.51-1.01,1.01-1.52,1.52.6.6,1.21,1.21,1.81,1.81-.21.53-.41,1.06-.63,1.58-.77-.76-1.52-1.53-2.3-2.28-.5.51-1.01,1.01-1.52,1.52.89.9,1.8,1.8,2.7,2.7-.32.42-.64.84-.96,1.25-2.69-2.7-5.41-5.37-8.07-8.09-.56.46-1.06.99-1.57,1.51,2.7,2.71,5.41,5.41,8.11,8.12-.42.33-.84.65-1.27.96-2.66-2.65-5.28-5.35-7.99-7.95-.49.51-.99,1.01-1.49,1.5,2.5,2.53,5.04,5.03,7.54,7.56-.52.21-1.05.42-1.57.63-2.37-2.35-4.71-4.73-7.09-7.07-.5.51-1.01,1.01-1.51,1.51,2.02,2.06,4.09,4.08,6.11,6.14-1.3.16-2.62.15-3.92,0,.29-.29.57-.58.85-.87-.5-.52-1.01-1.02-1.54-1.52-.59.6-1.19,1.19-1.78,1.8-.54-.2-1.07-.4-1.6-.62.76-.77,1.52-1.53,2.28-2.29-.5-.52-1.01-1.02-1.54-1.52-.89.9-1.79,1.79-2.68,2.69-.42-.32-.84-.64-1.25-.96,6.65-6.67,13.32-13.32,19.97-19.98.32.42.64.84.96,1.27-2.66,2.65-5.31,5.31-7.96,7.96.51.51,1.01,1.02,1.52,1.52,2.53-2.51,5.03-5.04,7.55-7.55.22.52.43,1.04.64,1.57-2.35,2.37-4.72,4.72-7.08,7.09.5.5,1.01,1.01,1.51,1.52,2.07-2.02,4.08-4.09,6.14-6.11Z"/>
  <path class="st1" d="M82.97,63.29c.42.32.83.64,1.25.96-6.66,6.66-13.31,13.32-19.98,19.97-.32-.42-.64-.84-.95-1.26,2.65-2.65,5.31-5.31,7.96-7.97-.51-.51-1.01-1.02-1.53-1.52-2.53,2.5-5.01,5.05-7.57,7.53-.22-.53-.43-1.06-.61-1.61,2.38-2.31,4.71-4.69,7.06-7.03-.51-.51-1.01-1.02-1.52-1.53-2.05,2.04-4.07,4.09-6.13,6.12-.16-1.3-.16-2.62,0-3.92.29.28.58.56.86.84.51-.5,1.02-1.01,1.53-1.52-.59-.6-1.18-1.2-1.79-1.78.19-.54.38-1.07.59-1.6.8.72,1.54,1.51,2.31,2.26.52-.5,1.02-1.01,1.53-1.52-.9-.9-1.8-1.8-2.7-2.7.32-.42.64-.84.96-1.26,2.71,2.7,5.41,5.41,8.12,8.11.51-.5,1.02-1.01,1.53-1.52-2.7-2.71-5.41-5.41-8.11-8.12.42-.32.83-.64,1.25-.96,2.65,2.66,5.31,5.31,7.96,7.97.52-.5,1.03-1.01,1.53-1.52-2.51-2.52-5.04-5.03-7.55-7.56.53-.23,1.07-.43,1.62-.62,2.31,2.38,4.69,4.68,7.01,7.05.55-.47,1.05-.99,1.56-1.51-2.04-2.04-4.09-4.08-6.12-6.13,1.31-.17,2.63-.16,3.93,0-.28.29-.56.58-.85.87.51.51,1.01,1.01,1.52,1.52.61-.6,1.22-1.21,1.82-1.81.53.2,1.06.42,1.58.64-.75.77-1.53,1.52-2.28,2.29.51.5,1.01,1,1.5,1.51.95-.86,1.82-1.8,2.73-2.69Z"/>
  <path class="st1" d="M75,90c-8.27,0-15-6.73-15-15s6.73-15,15-15,15,6.73,15,15-6.73,15-15,15ZM75,60.93c-7.76,0-14.07,6.31-14.07,14.07s6.31,14.07,14.07,14.07,14.07-6.31,14.07-14.07-6.31-14.07-14.07-14.07Z"/>
</svg>