<svg width="104" height="34" viewBox="0 0 104 34" fill="none" xmlns="http://www.w3.org/2000/svg">
<path fill-rule="evenodd" clip-rule="evenodd" d="M25.4947 12.0071H13.3949V15.5976H21.9767C21.5526 20.6327 17.3633 22.78 13.4095 22.78C8.35053 22.78 3.93607 18.7997 3.93607 13.2207C3.93607 7.78586 8.14435 3.60067 13.4204 3.60067C17.4913 3.60067 19.8902 6.19555 19.8902 6.19555L22.4036 3.59217C22.4036 3.59217 19.1773 1.94548e-08 13.292 1.94548e-08C5.79818 -0.000405051 0 6.32477 0 13.1567C0 19.8509 5.45346 26.379 13.4832 26.379C20.5448 26.3786 25.7139 21.5412 25.7139 14.3877C25.7139 12.8784 25.4947 12.0063 25.4947 12.0063V12.0071Z" fill="#176BEF"/>
<path fill-rule="evenodd" clip-rule="evenodd" d="M35.4563 12.7373C37.8981 12.7373 40.2118 14.7112 40.2118 17.8918C40.2118 21.0056 37.9078 23.0354 35.4454 23.0354C32.7395 23.0354 30.6044 20.8687 30.6044 17.8675C30.6044 14.9304 32.7123 12.7373 35.4563 12.7373ZM35.4069 9.40723C30.4419 9.40723 26.8838 13.2886 26.8838 17.8161C26.8838 22.4096 30.3354 26.3635 35.4652 26.3635C40.1093 26.3635 43.9146 22.8138 43.9146 17.9145C43.9146 12.299 39.4884 9.40723 35.4069 9.40723Z" fill="#FF3E30"/>
<path fill-rule="evenodd" clip-rule="evenodd" d="M53.9921 12.7373C56.4343 12.7373 58.7481 14.7112 58.7481 17.8918C58.7481 21.0056 56.4436 23.0354 53.9812 23.0354C51.2757 23.0354 49.141 20.8687 49.141 17.8675C49.141 14.9304 51.249 12.7373 53.9921 12.7373ZM53.9431 9.40723C48.9786 9.40723 45.42 13.2886 45.42 17.8161C45.42 22.4096 48.8712 26.3635 54.0015 26.3635C58.6456 26.3635 62.4504 22.8138 62.4504 17.9145C62.4504 12.299 58.0246 9.40723 53.9431 9.40723Z" fill="#F7B529"/>
<path fill-rule="evenodd" clip-rule="evenodd" d="M72.4559 12.7396C74.6903 12.7396 76.9846 14.6471 76.9846 17.9051C76.9846 21.2169 74.6948 23.0422 72.4065 23.0422C69.9773 23.0422 67.7166 21.0695 67.7166 17.9367C67.7166 14.6815 70.0644 12.7396 72.4559 12.7396ZM72.1258 9.41602C67.5688 9.41602 63.9863 13.4076 63.9863 17.8877C63.9863 22.9903 68.1395 26.3747 72.0472 26.3747C74.4639 26.3747 75.7488 25.4155 76.6978 24.3149V25.9862C76.6978 28.9117 74.9212 30.6636 72.2404 30.6636C69.6508 30.6632 68.3522 28.7379 67.9009 27.645L64.6421 29.0073C65.7982 31.451 68.1253 34.0002 72.2676 34.0002C76.7987 34.0002 80.2519 31.146 80.2519 25.1607V9.92559H76.6978V11.362C75.605 10.184 74.1098 9.41602 72.1258 9.41602Z" fill="#176BEF"/>
<path fill-rule="evenodd" clip-rule="evenodd" d="M96.2049 12.6558C97.7539 12.6558 98.8686 13.4789 99.3422 14.4664L91.7503 17.6397C91.423 15.183 93.7506 12.6558 96.2049 12.6558ZM96.0566 9.39453C91.7576 9.39453 88.1484 12.8149 88.1484 17.8617C88.1484 23.2022 92.1716 26.3694 96.4694 26.3694C100.057 26.3694 102.258 24.4069 103.573 22.6484L100.641 20.6984C99.8809 21.8788 98.6094 23.032 96.4876 23.032C94.1046 23.032 93.0085 21.7269 92.3292 20.4631L103.698 15.7456L103.108 14.3631C102.009 11.656 99.4471 9.39494 96.057 9.39494L96.0566 9.39453Z" fill="#FF3E30"/>
<path fill-rule="evenodd" clip-rule="evenodd" d="M82.7285 25.867H86.4629V0.876953H82.7285V25.867Z" fill="#179C52"/>
</svg>
