<svg width="24" height="24" viewBox="0 0 24 24" fill="none" xmlns="http://www.w3.org/2000/svg">
<path d="M19.7141 13.7115V21.4258C19.7141 21.8804 19.5335 22.3165 19.212 22.638C18.8905 22.9595 18.4545 23.1401 17.9998 23.1401H5.99983C5.54517 23.1401 5.10913 22.9595 4.78764 22.638C4.46615 22.3165 4.28554 21.8804 4.28554 21.4258V13.7115C4.28554 12.5749 4.73707 11.4848 5.5408 10.681C6.34452 9.87731 7.43461 9.42578 8.57125 9.42578H15.4284C16.565 9.42578 17.6551 9.87731 18.4589 10.681C19.2626 11.4848 19.7141 12.5749 19.7141 13.7115V13.7115Z" stroke="white" stroke-width="1.5" stroke-linecap="round" stroke-linejoin="round"/>
<path d="M12.8571 0.855469H11.1428L8.57135 9.4269H15.4285L12.8571 0.855469Z" stroke="white" stroke-width="1.5" stroke-linecap="round" stroke-linejoin="round"/>
<path d="M8.57135 18.8555H15.4285" stroke="white" stroke-width="1.5" stroke-linecap="round" stroke-linejoin="round"/>
<path d="M4.28564 14.5703H19.7142" stroke="white" stroke-width="1.5" stroke-linecap="round" stroke-linejoin="round"/>
</svg>
