<svg width="24" height="24" viewBox="0 0 24 24" fill="none" xmlns="http://www.w3.org/2000/svg">
<g clip-path="url(#clip0_357_382)">
<path d="M12 17.1758V18.9072" stroke="white" stroke-width="1.5" stroke-linecap="round" stroke-linejoin="round"/>
<path d="M12 8.58594V10.1974" stroke="white" stroke-width="1.5" stroke-linecap="round" stroke-linejoin="round"/>
<path d="M11.9999 23.1247C17.9999 23.1247 22.2857 20.999 22.2857 16.2675C22.2857 11.1247 19.7142 7.69612 14.5714 5.12469L16.5942 2.51897C16.697 2.34801 16.7527 2.15291 16.7558 1.95346C16.7589 1.75401 16.7092 1.5573 16.6117 1.38325C16.5142 1.20921 16.3725 1.06403 16.2008 0.962425C16.0292 0.860819 15.8337 0.806401 15.6342 0.804688H8.36566C8.1662 0.806401 7.97073 0.860819 7.79907 0.962425C7.62741 1.06403 7.48567 1.20921 7.38821 1.38325C7.29074 1.5573 7.24102 1.75401 7.24409 1.95346C7.24715 2.15291 7.3029 2.34801 7.40566 2.51897L9.42852 5.14183C4.28566 7.7304 1.71423 11.159 1.71423 16.3018C1.71423 20.999 5.99995 23.1247 11.9999 23.1247Z" stroke="white" stroke-width="1.5" stroke-linecap="round" stroke-linejoin="round"/>
<path d="M10.2857 16.3858C10.4948 16.6341 10.7581 16.8312 11.0553 16.9619C11.3524 17.0927 11.6756 17.1536 12 17.1401C12.4957 17.1739 12.9853 17.0142 13.3658 16.6945C13.7462 16.3748 13.9879 15.92 14.04 15.4258C13.9879 14.9316 13.7462 14.4769 13.3658 14.1572C12.9853 13.8375 12.4957 13.6777 12 13.7115C11.5042 13.7453 11.0146 13.5856 10.6342 13.2659C10.2537 12.9462 10.0121 12.4914 9.95996 11.9972C10.0079 11.5013 10.2484 11.044 10.6298 10.7234C11.0113 10.4029 11.5032 10.2447 12 10.283C12.3186 10.2635 12.6376 10.3148 12.9341 10.4334C13.2305 10.552 13.4969 10.7348 13.7142 10.9687" stroke="white" stroke-width="1.5" stroke-linecap="round" stroke-linejoin="round"/>
</g>
<defs>
<clipPath id="clip0_357_382">
<rect width="24" height="24" fill="white"/>
</clipPath>
</defs>
</svg>
