<?xml version="1.0" encoding="UTF-8"?>
<svg id="Layer_1" xmlns="http://www.w3.org/2000/svg" version="1.1" xmlns:xlink="http://www.w3.org/1999/xlink" viewBox="0 0 20 20">
  <!-- Generator: Adobe Illustrator 30.5.1, SVG Export Plug-In . SVG Version: 2.1.4 Build 3)  -->
  <defs>
    <style>
      .st0 {
        fill: none;
      }

      .st1 {
        fill: #1839b1;
      }

      .st2 {
        clip-path: url(#clippath);
      }
    </style>
    <clipPath id="clippath">
      <rect class="st0" y="0" width="20" height="20"/>
    </clipPath>
  </defs>
  <g class="st2">
    <g>
      <path class="st1" d="M15.81,12.39c-.41-.43-.9-.65-1.43-.65s-1.02.22-1.44.65l-1.33,1.33c-.11-.06-.22-.11-.32-.17-.15-.08-.3-.15-.42-.22-1.25-.79-2.38-1.83-3.47-3.17-.53-.67-.88-1.23-1.14-1.8.35-.32.67-.65.98-.96.12-.12.24-.24.35-.36.89-.89.89-2.03,0-2.92l-1.15-1.15c-.13-.13-.27-.27-.39-.4-.25-.26-.52-.53-.79-.79-.41-.41-.9-.62-1.41-.62s-1.01.22-1.44.62t0,0l-1.44,1.45C.41,3.77.1,4.43.03,5.19c-.1,1.23.26,2.38.54,3.13.68,1.84,1.71,3.55,3.23,5.39,1.85,2.21,4.07,3.95,6.61,5.18.97.46,2.27,1,3.71,1.1.09,0,.18,0,.27,0,.98,0,1.79-.35,2.44-1.05,0,0,.01-.01.02-.02.22-.27.47-.51.74-.76.18-.17.37-.35.55-.54.42-.43.64-.94.64-1.46s-.22-1.03-.65-1.45l-2.32-2.33ZM17.32,16.83s0,0,0,0c-.16.18-.33.34-.51.51-.27.26-.55.54-.81.84-.43.46-.93.67-1.59.67-.06,0-.13,0-.19,0-1.25-.08-2.42-.57-3.29-.99-2.39-1.16-4.49-2.8-6.23-4.88-1.44-1.73-2.4-3.34-3.04-5.06-.39-1.05-.54-1.87-.47-2.64.04-.49.23-.9.58-1.25l1.44-1.44c.21-.19.43-.3.64-.3.27,0,.48.16.62.3,0,0,0,0,.01.01.26.24.5.49.76.76.13.14.27.27.4.41l1.15,1.15c.45.45.45.86,0,1.31-.12.12-.24.24-.36.36-.35.36-.69.7-1.06,1.03,0,0-.02.01-.02.02-.36.36-.3.72-.22.96,0,.01,0,.03.01.04.3.73.72,1.41,1.36,2.22h0c1.17,1.44,2.39,2.56,3.75,3.41.17.11.35.2.52.28.15.08.3.15.42.22.02,0,.03.02.05.03.14.07.28.11.42.11.35,0,.57-.22.64-.29l1.44-1.44c.14-.14.37-.32.64-.32s.48.16.61.31t0,0l2.33,2.33c.43.43.43.87,0,1.32Z"/>
      <path class="st1" d="M10.81,4.76c1.11.19,2.11.71,2.91,1.51.8.8,1.32,1.81,1.51,2.91.05.28.29.47.56.47.03,0,.06,0,.1,0,.31-.05.52-.35.47-.66-.23-1.34-.86-2.56-1.83-3.52-.97-.97-2.19-1.6-3.52-1.83-.31-.05-.6.16-.66.46-.05.31.15.61.46.66Z"/>
      <path class="st1" d="M19.98,8.82c-.38-2.2-1.41-4.21-3.01-5.8S13.37.38,11.16,0c-.31-.05-.6.16-.65.46-.05.31.16.6.47.66,1.97.33,3.76,1.27,5.19,2.69,1.43,1.43,2.36,3.22,2.69,5.19.05.28.29.47.56.47.03,0,.06,0,.1,0,.31-.05.52-.34.46-.65Z"/>
    </g>
  </g>
</svg>