<svg width="24" height="24" viewBox="0 0 24 24" fill="none" xmlns="http://www.w3.org/2000/svg">
<g clip-path="url(#clip0_256_1584)">
<path d="M7.71426 22.2856C11.5014 22.2856 14.5714 19.2155 14.5714 15.4284C14.5714 11.6413 11.5014 8.57129 7.71426 8.57129C3.92716 8.57129 0.857117 11.6413 0.857117 15.4284C0.857117 19.2155 3.92716 22.2856 7.71426 22.2856Z" stroke="white" stroke-width="1.5" stroke-linecap="round" stroke-linejoin="round"/>
<path d="M16.2857 22.2856C20.0728 22.2856 23.1429 19.2155 23.1429 15.4284C23.1429 11.6413 20.0728 8.57129 16.2857 8.57129C12.4986 8.57129 9.42859 11.6413 9.42859 15.4284C9.42859 19.2155 12.4986 22.2856 16.2857 22.2856Z" stroke="white" stroke-width="1.5" stroke-linecap="round" stroke-linejoin="round"/>
<path d="M12 15.4282C15.7871 15.4282 18.8571 12.3581 18.8571 8.57101C18.8571 4.78391 15.7871 1.71387 12 1.71387C8.21287 1.71387 5.14282 4.78391 5.14282 8.57101C5.14282 12.3581 8.21287 15.4282 12 15.4282Z" stroke="white" stroke-width="1.5" stroke-linecap="round" stroke-linejoin="round"/>
</g>
<defs>
<clipPath id="clip0_256_1584">
<rect width="24" height="24" fill="white"/>
</clipPath>
</defs>
</svg>
