<svg width="25" height="25" viewBox="0 0 25 25" fill="none" xmlns="http://www.w3.org/2000/svg">
<g clip-path="url(#clip0_330_44905)">
<path d="M2.57555 10.3022H4.29259C4.52028 10.3022 4.73865 10.3926 4.89965 10.5536C5.06065 10.7146 5.1511 10.933 5.1511 11.1607V15.4533C5.1511 15.681 5.06065 15.8993 4.89965 16.0603C4.73865 16.2214 4.52028 16.3118 4.29259 16.3118H2.57555C2.12017 16.3118 1.68343 16.1309 1.36143 15.8089C1.03942 15.4869 0.858521 15.0502 0.858521 14.5948V12.0192C0.858521 11.5638 1.03942 11.1271 1.36143 10.8051C1.68343 10.4831 2.12017 10.3022 2.57555 10.3022V10.3022Z" stroke="white" stroke-width="1.5" stroke-linecap="round" stroke-linejoin="round"/>
<path d="M21.4629 16.3118H19.7459C19.5182 16.3118 19.2998 16.2214 19.1388 16.0604C18.9778 15.8994 18.8873 15.681 18.8873 15.4533V11.1607C18.8873 10.933 18.9778 10.7147 19.1388 10.5537C19.2998 10.3927 19.5182 10.3022 19.7459 10.3022H21.4629C21.9183 10.3022 22.355 10.4831 22.677 10.8051C22.999 11.1271 23.1799 11.5639 23.1799 12.0192V14.5948C23.1799 15.0502 22.999 15.4869 22.677 15.8089C22.355 16.1309 21.9183 16.3118 21.4629 16.3118V16.3118Z" stroke="white" stroke-width="1.5" stroke-linecap="round" stroke-linejoin="round"/>
<path d="M16.3118 21.0337C17.2226 21.0337 18.0961 20.6719 18.7401 20.0279C19.3841 19.3838 19.7459 18.5104 19.7459 17.5996V16.3118" stroke="white" stroke-width="1.5" stroke-linecap="round" stroke-linejoin="round"/>
<path d="M14.1655 18.8874C14.7347 18.8874 15.2807 19.1135 15.6832 19.516C16.0857 19.9185 16.3118 20.4644 16.3118 21.0337C16.3118 21.6029 16.0857 22.1488 15.6832 22.5513C15.2807 22.9538 14.7347 23.18 14.1655 23.18H11.59C11.0207 23.18 10.4748 22.9538 10.0723 22.5513C9.66979 22.1488 9.44366 21.6029 9.44366 21.0337C9.44366 20.4644 9.66979 19.9185 10.0723 19.516C10.4748 19.1135 11.0207 18.8874 11.59 18.8874H14.1655Z" stroke="white" stroke-width="1.5" stroke-linecap="round" stroke-linejoin="round"/>
<path d="M4.2926 10.3022V8.58517C4.2926 6.53593 5.10666 4.57063 6.55569 3.1216C8.00471 1.67258 9.97002 0.858521 12.0193 0.858521C14.0685 0.858521 16.0338 1.67258 17.4828 3.1216C18.9318 4.57063 19.7459 6.53593 19.7459 8.58517V10.3022" stroke="white" stroke-width="1.5" stroke-linecap="round" stroke-linejoin="round"/>
<path d="M9.44366 6.86816V9.44371" stroke="white" stroke-width="1.5" stroke-linecap="round" stroke-linejoin="round"/>
<path d="M14.5948 6.86816V9.44371" stroke="white" stroke-width="1.5" stroke-linecap="round" stroke-linejoin="round"/>
<path d="M9.44366 12.8777C9.44366 15.1614 14.5948 15.1614 14.5948 12.8777" stroke="white" stroke-width="1.5" stroke-linecap="round" stroke-linejoin="round"/>
</g>
<defs>
<clipPath id="clip0_330_44905">
<rect width="24.0385" height="24.0385" fill="white"/>
</clipPath>
</defs>
</svg>
