<svg width="33" height="26" viewBox="0 0 33 26" fill="none" xmlns="http://www.w3.org/2000/svg">
<path d="M27.1905 1H5.7619C3.13198 1 1 3.13198 1 5.7619V20.0476C1 22.6775 3.13198 24.8095 5.7619 24.8095H27.1905C29.8204 24.8095 31.9524 22.6775 31.9524 20.0476V5.7619C31.9524 3.13198 29.8204 1 27.1905 1Z" stroke="white" stroke-width="2" stroke-linecap="round" stroke-linejoin="round"/>
<path d="M12.4524 18.4285V8.42855C12.4474 8.25972 12.4886 8.09273 12.5715 7.94556C12.6543 7.7984 12.7758 7.67662 12.9227 7.59335C13.0697 7.51008 13.2366 7.46847 13.4054 7.47299C13.5742 7.47751 13.7387 7.528 13.8809 7.61902L22.4524 12.619C22.5956 12.7031 22.7143 12.8231 22.7969 12.9672C22.8794 13.1112 22.9228 13.2744 22.9228 13.4405C22.9228 13.6065 22.8794 13.7697 22.7969 13.9137C22.7143 14.0578 22.5956 14.1779 22.4524 14.2619L13.8809 19.2619C13.7355 19.3458 13.5705 19.3899 13.4026 19.3895C13.2347 19.3891 13.0699 19.3444 12.9248 19.2598C12.7798 19.1752 12.6597 19.0537 12.5767 18.9077C12.4938 18.7618 12.4509 18.5964 12.4524 18.4285V18.4285Z" stroke="white" stroke-width="2" stroke-linecap="round" stroke-linejoin="round"/>
</svg>
