<?xml version="1.0" encoding="UTF-8"?>
<svg id="Layer_1" xmlns="http://www.w3.org/2000/svg" version="1.1" viewBox="0 0 20 14.06">
  <!-- Generator: Adobe Illustrator 30.5.1, SVG Export Plug-In . SVG Version: 2.1.4 Build 3)  -->
  <defs>
    <style>
      .st0 {
        fill: #1839b1;
      }
    </style>
  </defs>
  <path class="st0" d="M18.24,0H1.76C.79,0,0,.79,0,1.76v10.55c0,.97.79,1.76,1.76,1.76h16.48c.96,0,1.76-.78,1.76-1.76V1.76c0-.96-.78-1.76-1.76-1.76ZM18,1.17c-.36.36-6.54,6.51-6.75,6.72-.33.33-.77.51-1.24.51s-.91-.18-1.24-.52c-.14-.14-6.26-6.22-6.75-6.72h15.99ZM1.17,12.07V2l5.06,5.04L1.17,12.07ZM2,12.89l5.06-5.03.86.86c.55.55,1.29.86,2.07.86s1.52-.3,2.07-.86l.86-.86,5.06,5.03H2ZM18.83,12.07l-5.06-5.03,5.06-5.04v10.07Z"/>
</svg>