<svg width="24" height="24" viewBox="0 0 24 24" fill="none" xmlns="http://www.w3.org/2000/svg">
<g clip-path="url(#clip0_435_77)">
<path d="M21.6693 3.20572L20.2293 7.45715C20.1796 7.55548 20.1537 7.66411 20.1537 7.77429C20.1537 7.88447 20.1796 7.99311 20.2293 8.09144L22.9207 11.6914C22.9981 11.7945 23.0448 11.9172 23.0556 12.0456C23.0664 12.174 23.0408 12.3028 22.9818 12.4173C22.9228 12.5319 22.8326 12.6274 22.7218 12.6931C22.6109 12.7587 22.4838 12.7918 22.355 12.7886H17.8636C17.7535 12.7918 17.6456 12.8197 17.5477 12.8701C17.4498 12.9205 17.3644 12.9923 17.2979 13.08L14.795 16.68C14.7216 16.7852 14.6202 16.8678 14.5022 16.9182C14.3842 16.9686 14.2544 16.985 14.1276 16.9653C14.0009 16.9457 13.8821 16.8909 13.7849 16.8071C13.6877 16.7233 13.616 16.6139 13.5779 16.4914L12.2407 12.2057C12.2102 12.0998 12.1533 12.0033 12.0754 11.9254C11.9974 11.8474 11.901 11.7905 11.795 11.76L7.50931 10.4229C7.3868 10.3847 7.27744 10.313 7.19367 10.2158C7.1099 10.1186 7.05507 9.9999 7.03543 9.87311C7.01578 9.74631 7.03211 9.61655 7.08254 9.49857C7.13298 9.38059 7.21551 9.27913 7.32074 9.20572L10.9893 6.61715C11.0771 6.55061 11.1488 6.46526 11.1992 6.36736C11.2496 6.26946 11.2775 6.16151 11.2807 6.05144V1.56001C11.2855 1.44204 11.3207 1.3273 11.3828 1.22691C11.445 1.12652 11.532 1.04388 11.6354 0.98698C11.7389 0.930082 11.8553 0.900859 11.9733 0.90214C12.0914 0.903421 12.2071 0.935164 12.3093 0.994294L15.9093 3.68572C16.0007 3.7492 16.1059 3.79007 16.2161 3.80497C16.3264 3.81987 16.4386 3.80838 16.5436 3.77144L20.795 2.33144C20.917 2.28859 21.0485 2.28106 21.1745 2.30973C21.3005 2.33841 21.4159 2.4021 21.5073 2.49349C21.5986 2.58487 21.6623 2.70022 21.691 2.82623C21.7197 2.95225 21.7122 3.0838 21.6693 3.20572V3.20572Z" stroke="white" stroke-width="1.5" stroke-linecap="round" stroke-linejoin="round"/>
<path d="M12.0689 11.9314L0.857422 23.1428" stroke="white" stroke-width="1.5" stroke-linecap="round" stroke-linejoin="round"/>
</g>
<defs>
<clipPath id="clip0_435_77">
<rect width="24" height="24" fill="white"/>
</clipPath>
</defs>
</svg>
