<svg width="20" height="20" viewBox="0 0 20 20" fill="none" xmlns="http://www.w3.org/2000/svg">
<g clip-path="url(#clip0_330_44853)">
<path d="M13.5714 5.00001L15.7143 7.14287L18.5714 4.28572L15 0.714294H5.00002L1.42859 4.28572L4.28573 7.14287L6.42859 5.00001V10C6.42859 11.9286 4.1143 13.2857 3.65716 17.7143C3.63672 17.9124 3.65793 18.1126 3.71944 18.3021C3.78094 18.4915 3.88138 18.666 4.0143 18.8143C4.14787 18.9623 4.31092 19.0807 4.49299 19.1619C4.67505 19.2431 4.8721 19.2853 5.07145 19.2857H14.9286C15.1279 19.2853 15.325 19.2431 15.507 19.1619C15.6891 19.0807 15.8522 18.9623 15.9857 18.8143C16.1187 18.666 16.2191 18.4915 16.2806 18.3021C16.3421 18.1126 16.3633 17.9124 16.3429 17.7143C15.8857 13.2857 13.5714 11.9286 13.5714 10V5.00001Z" stroke="white" stroke-width="1.5" stroke-linecap="round" stroke-linejoin="round"/>
<path d="M6.42859 8.92859C7.55965 9.40243 8.77371 9.64646 10 9.64646C11.2263 9.64646 12.4404 9.40243 13.5714 8.92859" stroke="white" stroke-width="1.5" stroke-linecap="round" stroke-linejoin="round"/>
</g>
<defs>
<clipPath id="clip0_330_44853">
<rect width="20" height="20" fill="white"/>
</clipPath>
</defs>
</svg>
