<svg width="24" height="24" viewBox="0 0 24 24" fill="none" xmlns="http://www.w3.org/2000/svg">
<g clip-path="url(#clip0_357_11227)">
<path d="M11.9998 0.855469H13.714C14.6234 0.855469 15.4954 1.21669 16.1384 1.85967C16.7814 2.50266 17.1426 3.37473 17.1426 4.28404V11.9983H11.9998V0.855469Z" stroke="white" stroke-width="1.5" stroke-linecap="round" stroke-linejoin="round"/>
<path d="M6.85693 12H11.9998V23.1429H10.2855C9.37619 23.1429 8.50412 22.7816 7.86114 22.1387C7.21816 21.4957 6.85693 20.6236 6.85693 19.7143V12Z" stroke="white" stroke-width="1.5" stroke-linecap="round" stroke-linejoin="round"/>
<path d="M23.1426 12V13.7143C23.1426 14.6236 22.7814 15.4957 22.1384 16.1387C21.4954 16.7816 20.6233 17.1429 19.714 17.1429H11.9997V12H23.1426Z" stroke="white" stroke-width="1.5" stroke-linecap="round" stroke-linejoin="round"/>
<path d="M11.9998 6.85547V11.9983H0.856899V10.284C0.856899 9.37473 1.21812 8.50266 1.8611 7.85967C2.50409 7.21669 3.37616 6.85547 4.28547 6.85547L11.9998 6.85547Z" stroke="white" stroke-width="1.5" stroke-linecap="round" stroke-linejoin="round"/>
</g>
<defs>
<clipPath id="clip0_357_11227">
<rect width="24" height="24" fill="white"/>
</clipPath>
</defs>
</svg>
