<svg width="24" height="24" viewBox="0 0 24 24" fill="none" xmlns="http://www.w3.org/2000/svg">
<g clip-path="url(#clip0_477_15824)">
<path d="M23.1429 12.8594H0.857178V23.1451H23.1429V12.8594Z" stroke="white" stroke-width="1.5" stroke-linecap="round" stroke-linejoin="round"/>
<path d="M12 0.858472C12 0.858472 14.5714 5.14419 11.1429 6.85847C9.42859 7.71561 6.85716 5.14419 6.85716 5.14419C6.47111 5.98888 6.30727 6.9182 6.38118 7.84399C6.45509 8.76977 6.76429 9.66133 7.27946 10.4341C7.79463 11.2068 8.49868 11.8352 9.32482 12.2595C10.151 12.6837 11.0718 12.8899 12 12.8585C12.7983 12.8977 13.596 12.7694 14.3418 12.4818C15.0875 12.1941 15.7647 11.7535 16.3299 11.1884C16.8951 10.6232 17.3357 9.94594 17.6233 9.20021C17.9109 8.45448 18.0393 7.65679 18 6.85847C18.0393 6.06016 17.9109 5.26247 17.6233 4.51674C17.3357 3.77101 16.8951 3.09376 16.3299 2.52859C15.7647 1.96341 15.0875 1.52282 14.3418 1.23518C13.596 0.947542 12.7983 0.819219 12 0.858472Z" stroke="white" stroke-width="1.5" stroke-linecap="round" stroke-linejoin="round"/>
<path d="M0.857178 18H23.1429" stroke="white" stroke-width="1.5" stroke-linecap="round" stroke-linejoin="round"/>
<path d="M9.42859 18V23.1429" stroke="white" stroke-width="1.5" stroke-linecap="round" stroke-linejoin="round"/>
<path d="M14.5714 12.8594V18.0022" stroke="white" stroke-width="1.5" stroke-linecap="round" stroke-linejoin="round"/>
</g>
<defs>
<clipPath id="clip0_477_15824">
<rect width="24" height="24" fill="white"/>
</clipPath>
</defs>
</svg>
