<svg width="24" height="24" viewBox="0 0 24 24" fill="none" xmlns="http://www.w3.org/2000/svg">
<path d="M20.5714 3.42773H22.2857C22.513 3.42773 22.7311 3.51804 22.8918 3.67879C23.0526 3.83953 23.1429 4.05755 23.1429 4.28488V17.9992C23.1429 18.2265 23.0526 18.4445 22.8918 18.6053C22.7311 18.766 22.513 18.8563 22.2857 18.8563H1.71429C1.48696 18.8563 1.26894 18.766 1.1082 18.6053C0.947453 18.4445 0.857147 18.2265 0.857147 17.9992V4.28488C0.857147 4.05755 0.947453 3.83953 1.1082 3.67879C1.26894 3.51804 1.48696 3.42773 1.71429 3.42773H3.42858" stroke="white" stroke-width="1.5" stroke-linecap="round" stroke-linejoin="round"/>
<path d="M10.2857 18.8555L8.57144 23.1412" stroke="white" stroke-width="1.5" stroke-linecap="round" stroke-linejoin="round"/>
<path d="M13.7143 18.8555L15.4286 23.1412" stroke="white" stroke-width="1.5" stroke-linecap="round" stroke-linejoin="round"/>
<path d="M6.85715 23.1426H17.1429" stroke="white" stroke-width="1.5" stroke-linecap="round" stroke-linejoin="round"/>
<path d="M12.0514 3.42773V5.99916" stroke="white" stroke-width="1.5" stroke-linecap="round" stroke-linejoin="round"/>
<path d="M6.85715 6.42773L9.08572 7.71345" stroke="white" stroke-width="1.5" stroke-linecap="round" stroke-linejoin="round"/>
<path d="M6.85715 12.4283L9.08572 11.1426" stroke="white" stroke-width="1.5" stroke-linecap="round" stroke-linejoin="round"/>
<path d="M12.0514 15.4269V12.8555" stroke="white" stroke-width="1.5" stroke-linecap="round" stroke-linejoin="round"/>
<path d="M17.2457 12.4283L15.0172 11.1426" stroke="white" stroke-width="1.5" stroke-linecap="round" stroke-linejoin="round"/>
<path d="M17.2457 6.42773L15.0172 7.71345" stroke="white" stroke-width="1.5" stroke-linecap="round" stroke-linejoin="round"/>
<path d="M12.0514 12.8571C13.945 12.8571 15.48 11.3221 15.48 9.42857C15.48 7.53502 13.945 6 12.0514 6C10.1579 6 8.62286 7.53502 8.62286 9.42857C8.62286 11.3221 10.1579 12.8571 12.0514 12.8571Z" stroke="white" stroke-width="1.5" stroke-linecap="round" stroke-linejoin="round"/>
</svg>
