<svg width="98" height="98" viewBox="0 0 98 98" fill="none" xmlns="http://www.w3.org/2000/svg">
<path d="M19.1935 72.2743C15.1102 67.7827 12.6602 62.8827 12.6602 54.716C12.6602 40.4243 22.8685 27.766 37.1602 21.2327L40.8352 26.541C27.3602 33.891 24.5018 43.2827 23.6852 49.4077C25.7268 48.1827 28.5852 47.7743 31.4435 48.1827C38.7935 48.9993 44.5102 54.716 44.5102 62.4743C44.5102 66.1493 42.8768 69.8243 40.4268 72.6827C37.5685 75.541 34.3018 76.766 30.2185 76.766C25.7268 76.766 21.6435 74.7243 19.1935 72.2743ZM60.0268 72.2743C55.9435 67.7827 53.4935 62.8827 53.4935 54.716C53.4935 40.4243 63.7018 27.766 77.9935 21.2327L81.6685 26.541C68.1935 33.891 65.3352 43.2827 64.5185 49.4077C66.5602 48.1827 69.4185 47.7743 72.2768 48.1827C79.6268 48.9993 85.3435 54.716 85.3435 62.4743C85.3435 66.1493 83.7102 69.8243 81.2602 72.6827C78.8102 75.541 75.1352 76.766 71.0518 76.766C66.5602 76.766 62.4768 74.7243 60.0268 72.2743Z" fill="#18191A" fill-opacity="0.1"/>
</svg>
