<svg width="24" height="24" viewBox="0 0 24 24" fill="none" xmlns="http://www.w3.org/2000/svg">
<path d="M17.1429 2.57227H6.85714C5.91036 2.57227 5.14285 3.33978 5.14285 4.28655V12.858C5.14285 13.8048 5.91036 14.5723 6.85714 14.5723H17.1429C18.0896 14.5723 18.8571 13.8048 18.8571 12.858V4.28655C18.8571 3.33978 18.0896 2.57227 17.1429 2.57227Z" stroke="white" stroke-width="1.5" stroke-linecap="round" stroke-linejoin="round"/>
<path d="M5.14286 7.71484H2.57143C2.11678 7.71484 1.68074 7.89546 1.35925 8.21695C1.03776 8.53844 0.857147 8.97447 0.857147 9.42913V17.1434C0.857147 17.5981 1.03776 18.0341 1.35925 18.3556C1.68074 18.6771 2.11678 18.8577 2.57143 18.8577H21.4286C21.8832 18.8577 22.3193 18.6771 22.6408 18.3556C22.9622 18.0341 23.1429 17.5981 23.1429 17.1434V9.42913C23.1429 8.97447 22.9622 8.53844 22.6408 8.21695C22.3193 7.89546 21.8832 7.71484 21.4286 7.71484H18.8571" stroke="white" stroke-width="1.5" stroke-linecap="round" stroke-linejoin="round"/>
<path d="M6.85714 18.8574L6 23.1431" stroke="white" stroke-width="1.5" stroke-linecap="round" stroke-linejoin="round"/>
<path d="M17.1429 18.8574L18 23.1431" stroke="white" stroke-width="1.5" stroke-linecap="round" stroke-linejoin="round"/>
</svg>
