<svg width="30" height="30" viewBox="0 0 30 30" fill="none" xmlns="http://www.w3.org/2000/svg">
<path d="M20.3571 7.5001L23.5714 10.7144L27.8571 6.42868L22.5 1.07153H7.49996L2.14282 6.42868L6.42854 10.7144L9.64282 7.5001V15.0001C9.64282 17.893 6.17139 19.9287 5.48568 26.5715C5.45502 26.8687 5.48684 27.169 5.5791 27.4532C5.67136 27.7373 5.82201 27.999 6.02139 28.2215C6.22174 28.4435 6.46632 28.6211 6.73942 28.7429C7.01252 28.8647 7.30809 28.928 7.60711 28.9287H22.3928C22.6918 28.928 22.9874 28.8647 23.2605 28.7429C23.5336 28.6211 23.7782 28.4435 23.9785 28.2215C24.1779 27.999 24.3286 27.7373 24.4208 27.4532C24.5131 27.169 24.5449 26.8687 24.5142 26.5715C23.8285 19.9287 20.3571 17.893 20.3571 15.0001V7.5001Z" stroke="white" stroke-width="1.5" stroke-linecap="round" stroke-linejoin="round"/>
<path d="M9.64282 13.3928C11.3394 14.1036 13.1605 14.4696 15 14.4696C16.8394 14.4696 18.6605 14.1036 20.3571 13.3928" stroke="white" stroke-width="1.5" stroke-linecap="round" stroke-linejoin="round"/>
</svg>
