<svg width="24" height="24" viewBox="0 0 24 24" fill="none" xmlns="http://www.w3.org/2000/svg">
<g clip-path="url(#clip0_256_2061)">
<path d="M12 23.1431C18.1541 23.1431 23.1429 18.1543 23.1429 12.0003C23.1429 5.84625 18.1541 0.857422 12 0.857422C5.846 0.857422 0.857178 5.84625 0.857178 12.0003C0.857178 18.1543 5.846 23.1431 12 23.1431Z" stroke="white" stroke-width="1.5" stroke-linecap="round" stroke-linejoin="round"/>
<path d="M0.857178 12H23.1429" stroke="white" stroke-width="1.5" stroke-linecap="round" stroke-linejoin="round"/>
<path d="M16.2858 12.0003C16.0753 16.0751 14.5744 19.9774 12.0001 23.1431C9.42576 19.9774 7.92487 16.0751 7.71436 12.0003C7.92487 7.92544 9.42576 4.02311 12.0001 0.857422C14.5744 4.02311 16.0753 7.92544 16.2858 12.0003V12.0003Z" stroke="white" stroke-width="1.5" stroke-linecap="round" stroke-linejoin="round"/>
</g>
<defs>
<clipPath id="clip0_256_2061">
<rect width="24" height="24" fill="white"/>
</clipPath>
</defs>
</svg>
