<svg width="20" height="20" viewBox="0 0 20 20" fill="none" xmlns="http://www.w3.org/2000/svg">
<g clip-path="url(#clip0_150_2162)">
<path d="M9.99995 19.2863C15.1283 19.2863 19.2857 15.1289 19.2857 10.0006C19.2857 4.8722 15.1283 0.714844 9.99995 0.714844C4.87159 0.714844 0.714233 4.8722 0.714233 10.0006C0.714233 15.1289 4.87159 19.2863 9.99995 19.2863Z" stroke="#C19A5B" stroke-width="1.5" stroke-linecap="round" stroke-linejoin="round"/>
<path d="M5.28564 11.4297C5.99993 14.0011 8.85707 15.5725 11.4285 14.8583C12.9999 14.2868 14.2856 13.0011 14.7142 11.4297" stroke="#C19A5B" stroke-width="1.5" stroke-linecap="round" stroke-linejoin="round"/>
<path d="M6.85713 7.71401C6.69933 7.71401 6.57141 7.58609 6.57141 7.42829C6.57141 7.2705 6.69933 7.14258 6.85713 7.14258" stroke="#C19A5B" stroke-width="1.5" stroke-linecap="round" stroke-linejoin="round"/>
<path d="M6.85706 7.71401C7.01485 7.71401 7.14277 7.58609 7.14277 7.42829C7.14277 7.2705 7.01485 7.14258 6.85706 7.14258" stroke="#C19A5B" stroke-width="1.5" stroke-linecap="round" stroke-linejoin="round"/>
<path d="M13.1428 7.71401C12.985 7.71401 12.8571 7.58609 12.8571 7.42829C12.8571 7.2705 12.985 7.14258 13.1428 7.14258" stroke="#C19A5B" stroke-width="1.5" stroke-linecap="round" stroke-linejoin="round"/>
<path d="M13.1428 7.71401C13.3006 7.71401 13.4285 7.58609 13.4285 7.42829C13.4285 7.2705 13.3006 7.14258 13.1428 7.14258" stroke="#C19A5B" stroke-width="1.5" stroke-linecap="round" stroke-linejoin="round"/>
</g>
<defs>
<clipPath id="clip0_150_2162">
<rect width="20" height="20" fill="white"/>
</clipPath>
</defs>
</svg>
