<svg width="24" height="24" viewBox="0 0 24 24" fill="none" xmlns="http://www.w3.org/2000/svg">
<g clip-path="url(#clip0_256_2151)">
<path d="M12 23.1431C18.1541 23.1431 23.1429 18.1543 23.1429 12.0003C23.1429 5.84625 18.1541 0.857422 12 0.857422C5.846 0.857422 0.857178 5.84625 0.857178 12.0003C0.857178 18.1543 5.846 23.1431 12 23.1431Z" stroke="white" stroke-width="1.5" stroke-linecap="round" stroke-linejoin="round"/>
<path d="M12 0.857422V23.1431" stroke="white" stroke-width="1.5" stroke-linecap="round" stroke-linejoin="round"/>
<path d="M3.59998 19.3197C4.85609 18.555 5.89434 17.48 6.61488 16.198C7.33542 14.916 7.71402 13.4703 7.71426 11.9997C7.71402 10.5291 7.33542 9.08333 6.61488 7.80137C5.89434 6.51941 4.85609 5.44439 3.59998 4.67969" stroke="white" stroke-width="1.5" stroke-linecap="round" stroke-linejoin="round"/>
<path d="M20.4 4.67969C19.1443 5.44467 18.1066 6.51982 17.3864 7.80176C16.6663 9.0837 16.2881 10.5293 16.2881 11.9997C16.2881 13.47 16.6663 14.9157 17.3864 16.1976C18.1066 17.4796 19.1443 18.5547 20.4 19.3197" stroke="white" stroke-width="1.5" stroke-linecap="round" stroke-linejoin="round"/>
</g>
<defs>
<clipPath id="clip0_256_2151">
<rect width="24" height="24" fill="white"/>
</clipPath>
</defs>
</svg>
