<svg width="30" height="30" viewBox="0 0 30 30" fill="none" xmlns="http://www.w3.org/2000/svg">
<g clip-path="url(#clip0_330_42837)">
<path d="M15 11.7857C22.6926 11.7857 28.9286 9.38722 28.9286 6.42855C28.9286 3.46989 22.6926 1.07141 15 1.07141C7.30748 1.07141 1.07144 3.46989 1.07144 6.42855C1.07144 9.38722 7.30748 11.7857 15 11.7857Z" stroke="white" stroke-width="1.5" stroke-linecap="round" stroke-linejoin="round"/>
<path d="M1.07144 6.42859V23.5714C1.07144 26.5286 7.30716 28.9286 15 28.9286C22.6929 28.9286 28.9286 26.5286 28.9286 23.5714V6.42859" stroke="white" stroke-width="1.5" stroke-linecap="round" stroke-linejoin="round"/>
<path d="M28.9286 15C28.9286 17.9571 22.6929 20.3571 15 20.3571C7.30716 20.3571 1.07144 17.9571 1.07144 15" stroke="white" stroke-width="1.5" stroke-linecap="round" stroke-linejoin="round"/>
</g>
<defs>
<clipPath id="clip0_330_42837">
<rect width="30" height="30" fill="white"/>
</clipPath>
</defs>
</svg>
