<svg width="50" height="50" viewBox="0 0 50 50" fill="none" xmlns="http://www.w3.org/2000/svg">
<rect width="50" height="50" rx="25" fill="#C19A5B"/>
<path d="M39.0313 23.0464C39.1936 24.3475 39.1912 25.6631 39.0337 26.9643C38.7448 26.6802 38.4511 26.4008 38.1646 26.1168C37.6585 26.6253 37.1547 27.1315 36.6462 27.6376C37.2479 28.2417 37.8519 28.8457 38.4559 29.4522C38.2506 29.9798 38.0429 30.5098 37.8304 31.0351C37.0592 30.2783 36.3072 29.5023 35.5289 28.7526C35.0251 29.2588 34.5189 29.7673 34.0128 30.2711C34.9057 31.176 35.8154 32.0689 36.7107 32.9738C36.3955 33.394 36.0756 33.8118 35.7485 34.2248C33.0626 31.5269 30.3432 28.8577 27.6811 26.1311C27.1176 26.5919 26.6187 27.1195 26.1125 27.64C28.8128 30.3475 31.5202 33.0502 34.2228 35.7552C33.805 36.0823 33.3824 36.4022 32.9503 36.7102C30.293 34.0577 27.6739 31.3622 24.9641 28.7645C24.477 29.273 23.9781 29.7697 23.4791 30.2663C25.9788 32.7995 28.5167 35.2992 31.0212 37.83C30.5007 38.0449 29.9755 38.255 29.4479 38.4579C27.0794 36.1086 24.7349 33.7306 22.3593 31.3861C21.8556 31.8922 21.3518 32.396 20.8457 32.8974C22.8679 34.9602 24.9331 36.98 26.9601 39.0357C25.6565 39.1909 24.3386 39.1885 23.035 39.0405C23.3215 38.7539 23.6009 38.4603 23.8874 38.1738C23.3836 37.6581 22.875 37.1496 22.3474 36.6577C21.7601 37.2618 21.1584 37.8514 20.5687 38.4531C20.0315 38.2574 19.5015 38.0497 18.9715 37.8348C19.7283 37.066 20.4947 36.3067 21.2539 35.5403C20.7502 35.0246 20.2392 34.5185 19.7164 34.0243C18.8259 34.9267 17.9282 35.8173 17.0328 36.715C16.6126 36.3998 16.1948 36.0799 15.7794 35.7552C22.431 29.0892 29.0969 22.44 35.7509 15.7764C36.0756 16.1942 36.3955 16.6168 36.7059 17.0441C34.0486 19.6943 31.396 22.3492 28.7435 25.0042C29.2521 25.5127 29.7582 26.0213 30.2644 26.5274C32.7904 24.0205 35.2949 21.4921 37.8184 18.9804C38.0381 19.5009 38.2506 20.0238 38.4583 20.549C36.1066 22.9198 33.7358 25.2716 31.3794 27.64C31.8831 28.1438 32.3869 28.6523 32.8882 29.1609C34.9558 27.1409 36.9708 25.0686 39.0313 23.0464Z" fill="white"/>
<path d="M32.9741 13.2884C33.3919 13.6084 33.8073 13.9283 34.2204 14.253C27.564 20.9118 20.91 27.5778 14.2417 34.2271C13.9193 33.8092 13.6018 33.3914 13.2891 32.9712C15.944 30.3163 18.6037 27.6637 21.2538 25.004C20.7477 24.4931 20.2391 23.9845 19.7282 23.4807C17.1998 25.9853 14.7144 28.5328 12.1622 31.0158C11.9377 30.4881 11.73 29.951 11.5558 29.4042C13.9385 27.0907 16.264 24.7127 18.6181 22.3705C18.1119 21.8596 17.6057 21.3511 17.0948 20.8449C15.0487 22.8815 13.0217 24.9371 10.9637 26.9641C10.8085 25.6606 10.8085 24.345 10.9613 23.0438C11.2478 23.3255 11.5414 23.6025 11.8256 23.8866C12.3389 23.3876 12.8474 22.8815 13.3512 22.3705C12.7591 21.7712 12.167 21.1744 11.5582 20.5918C11.7444 20.0522 11.9426 19.5198 12.1503 18.9921C12.9501 19.7156 13.6879 20.501 14.459 21.2555C14.9747 20.7542 15.4832 20.248 15.9846 19.7323C15.0869 18.8322 14.1868 17.9345 13.2867 17.0344C13.6043 16.6118 13.9218 16.194 14.2465 15.7785C16.954 18.4812 19.6566 21.1887 22.3616 23.8913C22.8749 23.39 23.3859 22.8814 23.8897 22.3681C21.1869 19.6608 18.4771 16.9629 15.7768 14.2506C16.1922 13.9259 16.6077 13.606 17.0279 13.2884C19.6804 15.9458 22.3401 18.5959 24.9878 21.2557C25.5107 20.759 26.0192 20.2505 26.5206 19.7324C24.0066 17.2112 21.4806 14.7019 18.9713 12.1735C19.5014 11.9467 20.0409 11.739 20.59 11.5575C22.8988 13.9355 25.2839 16.2371 27.5998 18.6103C28.1465 18.1376 28.6527 17.6195 29.1564 17.099C27.1175 15.0553 25.0714 13.0163 23.0324 10.9726C24.3384 10.8055 25.6587 10.8103 26.9623 10.9654C26.6782 11.2543 26.3988 11.548 26.1123 11.8369C26.6185 12.343 27.1223 12.8492 27.6284 13.3553C28.2396 12.7561 28.8437 12.1496 29.4477 11.5432C29.9753 11.7461 30.5029 11.9586 31.0234 12.1783C30.269 12.9471 29.4978 13.6991 28.7433 14.4703C29.2495 14.9693 29.7485 15.4707 30.2403 15.9792C31.1882 15.1221 32.062 14.1838 32.9741 13.2884Z" fill="white"/>
<path d="M24.9998 40C16.7288 40 10 33.2709 10 24.9999C10 16.7288 16.7288 10 24.9998 10C33.2708 10 39.9996 16.7288 39.9996 24.9999C39.9996 33.2709 33.2708 40 24.9998 40ZM24.9998 10.9332C17.2435 10.9332 10.9332 17.2435 10.9332 24.9999C10.9332 32.7565 17.2435 39.0668 24.9998 39.0668C32.7561 39.0668 39.0664 32.7565 39.0664 24.9999C39.0664 17.2435 32.7561 10.9332 24.9998 10.9332Z" fill="white"/>
</svg>
